<svg width="3254" height="825" viewBox="0 0 3254 825" fill="none" xmlns="http://www.w3.org/2000/svg">
<rect width="3253.26" height="825" fill="white"/>
<path d="M388.328 168.272V278.65L287.391 547.24H140.231L388.328 168.272Z" fill="#D9D9D9"/>
<path d="M388.328 168.272V278.65L287.391 547.24H140.231L388.328 168.272Z" fill="#1A4F53"/>
<path d="M403.957 168.272V278.65L504.894 547.24H652.054L403.957 168.272Z" fill="#D9D9D9"/>
<path d="M403.957 168.272V278.65L504.894 547.24H652.054L403.957 168.272Z" fill="#1A4F53"/>
<path d="M140.227 570.168H286.741V652.054H140.227V570.168Z" fill="#D9D9D9"/>
<path d="M140.227 570.168H286.741V652.054H140.227V570.168Z" fill="#1A4F53"/>
<path d="M505.535 570.168H652.049V652.054H505.535V570.168Z" fill="#D9D9D9"/>
<path d="M505.535 570.168H652.049V652.054H505.535V570.168Z" fill="#1A4F53"/>
<path d="M958.589 527.044C969.478 532.261 978.099 539.747 984.451 549.502C991.03 559.257 994.319 570.486 994.319 583.19C994.319 602.246 987.627 618.239 974.242 631.17C960.858 644.101 944.524 650.566 925.242 650.566H822.476V412.368H917.755C936.357 412.368 952.124 418.607 965.055 431.084C977.985 443.561 984.451 458.987 984.451 477.362C984.451 498.46 975.83 515.02 958.589 527.044ZM917.755 441.973H854.122V514.793H917.755C927.737 514.793 936.131 511.277 942.936 504.245C949.742 497.212 953.145 488.592 953.145 478.383C953.145 468.401 949.628 459.894 942.596 452.862C935.79 445.602 927.51 441.973 917.755 441.973ZM925.242 620.962C935.904 620.962 944.865 617.219 952.124 609.732C959.383 602.246 963.013 593.059 963.013 582.169C963.013 571.507 959.27 562.433 951.784 554.947C944.524 547.461 935.677 543.717 925.242 543.717H854.122V620.962H925.242ZM1154.33 412.368H1185.98V650.566H1154.33V412.368ZM1496.71 442.313H1391.22V519.557H1492.29V549.502H1391.22V650.566H1359.58V412.368H1496.71V442.313ZM1798.76 650.566L1745.33 559.37H1689.19V650.566H1657.54V412.368H1752.82C1773.24 412.368 1790.7 419.627 1805.22 434.146C1819.74 448.438 1827 465.793 1827 486.21C1827 501.636 1822.35 515.701 1813.05 528.405C1803.97 541.109 1792.18 550.069 1777.66 555.287L1833.81 650.566H1798.76ZM1689.19 441.973V530.787H1752.82C1764.61 530.787 1774.6 526.476 1782.76 517.856C1791.16 509.009 1795.35 498.46 1795.35 486.21C1795.35 473.959 1791.16 463.524 1782.76 454.903C1774.6 446.283 1764.61 441.973 1752.82 441.973H1689.19ZM2174.91 618.92C2151.09 642.967 2121.93 654.99 2087.45 654.99C2052.97 654.99 2023.82 642.967 2000 618.92C1976.18 594.873 1964.27 565.722 1964.27 531.467C1964.27 496.985 1976.18 467.834 2000 444.014C2023.82 419.968 2052.97 407.944 2087.45 407.944C2121.93 407.944 2151.09 419.968 2174.91 444.014C2198.95 467.834 2210.98 496.985 2210.98 531.467C2210.98 565.722 2198.95 594.873 2174.91 618.92ZM2021.78 597.482C2039.47 615.177 2061.36 624.024 2087.45 624.024C2113.54 624.024 2135.32 615.177 2152.79 597.482C2170.48 579.561 2179.33 557.556 2179.33 531.467C2179.33 505.152 2170.48 483.147 2152.79 465.452C2135.32 447.531 2113.54 438.57 2087.45 438.57C2061.36 438.57 2039.47 447.531 2021.78 465.452C2004.31 483.147 1995.58 505.152 1995.58 531.467C1995.58 557.556 2004.31 579.561 2021.78 597.482ZM2422.77 654.99C2400.54 654.99 2381.48 649.772 2365.6 639.337C2349.95 628.902 2338.95 614.61 2332.6 596.461L2359.82 580.808C2369.12 609.619 2390.33 624.024 2423.45 624.024C2439.79 624.024 2452.26 620.735 2460.88 614.156C2469.5 607.35 2473.81 598.39 2473.81 587.274C2473.81 575.931 2469.5 567.424 2460.88 561.752C2452.26 556.081 2437.86 550.069 2417.67 543.717C2407.69 540.541 2400.09 538.046 2394.87 536.231C2389.65 534.19 2383.07 531.24 2375.13 527.384C2367.42 523.3 2361.63 519.217 2357.78 515.134C2353.92 510.823 2350.41 505.265 2347.23 498.46C2344.28 491.654 2342.81 483.941 2342.81 475.32C2342.81 454.677 2350.07 438.343 2364.58 426.32C2379.1 414.069 2396.8 407.944 2417.67 407.944C2436.5 407.944 2452.83 412.708 2466.67 422.236C2480.73 431.764 2491.28 444.355 2498.32 460.008L2471.77 475.32C2461.56 450.82 2443.53 438.57 2417.67 438.57C2404.74 438.57 2394.3 441.746 2386.36 448.098C2378.42 454.45 2374.45 463.07 2374.45 473.959C2374.45 484.395 2378.2 492.335 2385.68 497.779C2393.17 503.224 2406.1 508.895 2424.47 514.793C2431.05 516.835 2435.7 518.31 2438.43 519.217C2441.15 520.124 2445.34 521.712 2451.02 523.981C2456.91 526.25 2461.22 528.064 2463.95 529.426C2466.67 530.787 2470.3 532.715 2474.84 535.21C2479.6 537.706 2483.12 540.088 2485.38 542.356C2487.65 544.625 2490.26 547.461 2493.21 550.863C2496.39 554.039 2498.66 557.329 2500.02 560.732C2501.38 564.134 2502.51 568.104 2503.42 572.642C2504.55 576.952 2505.12 581.602 2505.12 586.593C2505.12 607.464 2497.52 624.138 2482.32 636.615C2467.12 648.865 2447.27 654.99 2422.77 654.99ZM2788.49 412.368V442.313H2718.05V650.566H2686.74V442.313H2616.64V412.368H2788.49Z" fill="#1A1B1E"/>
<path d="M1023.13 204.841C1036.2 204.841 1046.54 209.405 1054.03 218.534V207.242H1075.53V301.423H1054.01V289.976C1046.53 299.225 1036.19 303.824 1023.11 303.824C1010.36 303.824 999.449 299.043 990.419 289.501L990.416 289.5C981.405 279.845 976.89 268.213 976.89 254.333C976.89 240.453 981.405 228.708 990.437 219.164C999.467 209.622 1010.38 204.841 1023.13 204.841ZM1354.58 205.179C1365.11 205.179 1373.66 208.633 1380.18 215.622C1386.69 222.61 1389.9 231.962 1389.9 243.586V301.742H1389.14L1389.11 301.78H1368.35V244.9C1368.35 238.655 1366.81 234.002 1363.87 230.778L1363.86 230.772C1360.91 227.436 1356.87 225.733 1351.64 225.733C1345.8 225.733 1341.22 227.677 1337.79 231.503C1334.49 235.323 1332.75 241.136 1332.75 249.138V301.761H1311.24V244.88C1311.24 238.631 1309.76 233.958 1306.92 230.734L1306.91 230.72C1304.22 227.418 1300.32 225.714 1295.09 225.714C1289.4 225.714 1284.8 227.71 1281.23 231.694L1281.23 231.699C1277.7 235.519 1275.85 241.273 1275.85 249.138V301.761H1254.33V207.58H1275.85V216.663C1281.78 208.993 1289.81 205.179 1300.93 205.179C1312.34 205.179 1321.01 209.775 1326.78 218.947C1333.05 209.75 1342.36 205.179 1354.58 205.179ZM922.906 205.179C933.439 205.179 941.994 208.633 948.506 215.622C955.017 222.61 958.224 231.962 958.224 243.586V301.742H957.39L957.353 301.761H936.675V244.88C936.675 238.636 935.142 233.984 932.196 230.759L932.191 230.753C929.243 227.418 925.2 225.714 919.968 225.714C914.149 225.714 909.55 227.658 906.119 231.484C902.823 235.303 901.08 241.117 901.08 249.12V301.742H879.567V244.862C879.567 238.614 878.069 233.94 875.249 230.734L875.237 230.72C872.552 227.418 868.648 225.714 863.415 225.714C857.732 225.714 853.128 227.71 849.562 231.694L849.557 231.699C846.026 235.519 844.176 241.273 844.176 249.138V301.761H822.663V207.58H844.176V216.659C850.093 208.991 858.123 205.179 869.255 205.179C880.683 205.179 889.34 209.775 895.107 218.947C901.375 209.75 910.689 205.179 922.906 205.179ZM1121.29 207.96L1141.45 236.058L1161.89 207.561H1187.12L1186.03 209.075L1154.05 253.544L1187.66 300.227L1188.75 301.742H1186.94L1186.93 301.761H1163.72L1163.44 301.362L1141.63 270.864L1119.65 301.378L1119.36 301.742H1094.13L1129.01 253.358L1097.03 209.076L1095.94 207.561H1121L1121.29 207.96ZM1227.94 301.761H1206.43V207.58H1227.94V301.761ZM1026.22 225.752C1018.2 225.752 1011.6 228.483 1006.33 233.957L1006.33 233.96C1001.06 239.303 998.422 246.062 998.422 254.333C998.422 262.601 1001.08 269.419 1006.35 274.895C1011.61 280.237 1018.22 282.914 1026.24 282.914C1034.25 282.914 1040.86 280.238 1046.13 274.895C1051.39 269.42 1054.03 262.602 1054.03 254.333C1054.03 246.133 1051.44 239.418 1046.26 234.097H1046.24L1046.11 233.957C1040.84 228.483 1034.23 225.752 1026.22 225.752ZM1217.15 168.272C1220.93 168.272 1224.14 169.654 1226.74 172.427C1229.34 175.064 1230.64 178.238 1230.64 181.944C1230.64 185.658 1229.26 188.907 1226.55 191.652C1223.95 194.289 1220.82 195.615 1217.17 195.615C1213.58 195.615 1210.42 194.334 1207.74 191.79H1207.69L1207.56 191.645C1204.96 188.897 1203.66 185.631 1203.66 181.944C1203.66 178.257 1204.96 175.063 1207.56 172.426C1210.16 169.674 1213.36 168.272 1217.15 168.272Z" fill="#1A1B1E"/>
</svg>
