<svg xmlns="http://www.w3.org/2000/svg" width="145" height="31" fill="none"><mask id="a" width="11" height="29" x="0" y="0" maskUnits="userSpaceOnUse" style="mask-type:luminance"><path fill="#fff" d="M10.314.697H.449v28.185h9.865V.697Z"/></mask><g mask="url(#a)"><path fill="#CBD5E1" d="M6.227 4.96c-4.827 7.434-3.453 17.827 3.91 23.43.142.141.212.317.142.423-.07.105-.282.105-.423-.035a17.482 17.482 0 0 1-6.447-11.169c-.67-4.439.317-8.948 2.818-12.648Zm.388 20.928c-1.022.88-3.065.14-4.087-1.903 1.233-.599 2.889.352 4.087 1.903Zm1.092-4.616c.67 1.374.67 3.1-.352 4.017-1.198-1.55-.846-3.453.352-4.017Zm-2.995 1.55c-1.162.705-2.994-.422-3.593-2.607 1.303-.317 2.712.916 3.593 2.608Zm2.008-4.227c.388 1.48.036 3.17-1.162 3.805h-.035c-.846-1.727-.106-3.488 1.197-3.805Zm-3.24.951C2.175 19.969.624 18.524.45 16.27c1.338-.071 2.5 1.444 3.03 3.276Zm2.782-3.734c.106 1.514-.599 3.065-1.902 3.487v-.035c-.493-1.832.528-3.382 1.902-3.452ZM.555 12.253c1.339.247 2.184 1.938 2.325 3.805-1.339.176-2.607-1.55-2.325-3.805Zm5.778.74c-.212 1.515-1.163 2.854-2.502 3.03l-.035-.035c-.106-1.868 1.198-3.206 2.537-2.995Zm.599-2.748c-.458 1.444-1.691 2.572-3.03 2.43.211-1.866 1.761-2.923 3.03-2.43ZM1.4 8.342c1.234.494 1.762 2.29 1.586 4.122l-.035.106h-.036c-1.303-.176-2.184-2.008-1.55-4.122l.035-.106Zm6.66-.74c-.776 1.34-2.15 2.22-3.453 1.833.563-1.797 2.29-2.572 3.452-1.832ZM3.02 4.644c1.128.74 1.268 2.678.705 4.51-1.304-.388-1.868-2.502-.705-4.51Zm6.694.564C8.658 6.405 7.108 7.004 5.91 6.37c.951-1.692 2.854-2.114 3.805-1.163ZM5.346 1.26c.987.986.705 2.96-.246 4.615-1.163-.634-1.304-2.818.246-4.615ZM10.28.697c-.634 1.656-1.973 2.96-3.594 3.594C6.685 2.6 8.517.732 10.28.697Z"/></g><g filter="url(#b)"><path fill="#fff" d="M17.547.697h10.249v28.185l-5.125-3.393-5.124 3.393V.697Z"/><mask id="c" width="11" height="29" x="17" y="0" maskUnits="userSpaceOnUse" style="mask-type:alpha"><path fill="#fff" d="M17.547.697h10.249v28.185l-5.125-3.393-5.124 3.393V.697Z"/></mask><g mask="url(#c)"><path fill="#E52E40" d="M20.963.697h-3.416v28.185h3.416V.697Z"/><path fill="#F6F8FA" d="M24.377.697h-3.416v28.185h3.416V.697Z"/><path fill="#0E6A8E" d="M27.8.697h-3.417v28.185h3.416V.697Z"/></g><g filter="url(#d)"><path fill="url(#e)" d="M22.668 23.705c5.897 0 10.676-4.78 10.676-10.676 0-5.897-4.78-10.676-10.676-10.676s-10.676 4.78-10.676 10.676 4.78 10.676 10.676 10.676Z"/></g><g fill="#586069" filter="url(#f)"><path d="M19.192 20.792a.523.523 0 0 1-.22.237.586.586 0 0 1-.322.068 1.008 1.008 0 0 1-.388-.11 1.131 1.131 0 0 1-.236-.15.779.779 0 0 1-.158-.177l.072-.103a.596.596 0 0 0 .167.183.808.808 0 0 0 .117.07.492.492 0 0 0 .227.053.38.38 0 0 0 .208-.069.503.503 0 0 0 .159-.197.6.6 0 0 0 .068-.293.464.464 0 0 0-.086-.255.569.569 0 0 0-.227-.188l-.096-.047-.685 1.402a.085.085 0 0 0-.008.055.085.085 0 0 0 .035.047l.1.068c.02.014.032.028.036.044.005.014.002.03-.007.05a.059.059 0 0 1-.04.033c-.017.004-.04 0-.066-.013l-.647-.316a.096.096 0 0 1-.05-.044.06.06 0 0 1 .003-.051c.015-.031.043-.044.084-.038l.077.019a.11.11 0 0 0 .06-.005.07.07 0 0 0 .037-.037l.643-1.318a.07.07 0 0 0 .006-.052.11.11 0 0 0-.032-.05l-.063-.049c-.03-.029-.037-.059-.022-.09a.057.057 0 0 1 .04-.034c.017-.004.039 0 .064.012l.602.294c.182.088.322.19.423.308a.728.728 0 0 1 .182.367.61.61 0 0 1-.057.376Zm1.411.81a.154.154 0 0 1-.07.102c-.034.018-.077.021-.13.008l-.834-.215.027-.104.549.14c.045.012.073-.002.084-.043a.472.472 0 0 0 .004-.283.208.208 0 0 0-.15-.135.238.238 0 0 0-.16.013.34.34 0 0 0-.138.118.651.651 0 0 0-.095.217c-.044.173-.037.313.022.42a.437.437 0 0 0 .29.212c.078.02.15.022.219.006a.35.35 0 0 0 .173-.096.229.229 0 0 1 .048-.027.056.056 0 0 1 .032-.001.033.033 0 0 1 .025.027.087.087 0 0 1-.003.05.373.373 0 0 1-.133.188.546.546 0 0 1-.242.1.74.74 0 0 1-.307-.02.751.751 0 0 1-.323-.166.617.617 0 0 1-.178-.284.67.67 0 0 1 .001-.36.803.803 0 0 1 .173-.338.617.617 0 0 1 .296-.185.725.725 0 0 1 .385.004c.12.03.216.079.29.144a.46.46 0 0 1 .146.229.523.523 0 0 1 0 .279Zm1.614.169a.154.154 0 0 1-.052.113c-.03.024-.071.034-.125.03l-.86-.066.009-.107.564.043c.047.004.072-.015.075-.058a.471.471 0 0 0-.045-.279.207.207 0 0 0-.17-.107.237.237 0 0 0-.156.04.34.34 0 0 0-.116.142.648.648 0 0 0-.055.23c-.013.177.018.314.095.41a.437.437 0 0 0 .322.157.456.456 0 0 0 .217-.032.35.35 0 0 0 .153-.125.224.224 0 0 1 .043-.034.057.057 0 0 1 .031-.008.033.033 0 0 1 .03.023c.006.014.008.03.006.05a.374.374 0 0 1-.099.208.546.546 0 0 1-.22.14.741.741 0 0 1-.306.036.75.75 0 0 1-.347-.109.617.617 0 0 1-.287-.602.812.812 0 0 1 .111-.364.617.617 0 0 1 .26-.233.724.724 0 0 1 .38-.064.69.69 0 0 1 .31.092c.083.05.145.117.183.2.04.08.056.172.049.274Zm.853.048a.877.877 0 0 1 .027-.34.475.475 0 0 1 .133-.217.326.326 0 0 1 .192-.086c.088-.007.158.012.21.059.052.045.082.115.09.208.007.082-.005.145-.035.189a.165.165 0 0 1-.127.072c-.055.004-.099-.007-.13-.034a.169.169 0 0 1-.054-.118l-.004-.051c-.003-.029-.011-.05-.026-.062-.014-.013-.035-.019-.064-.017a.143.143 0 0 0-.091.049.272.272 0 0 0-.062.125.658.658 0 0 0-.01.21l-.05.013Zm-.017-.514.05.307.06.709c.003.025.01.044.02.056.012.011.032.018.06.02l.119.01a.087.087 0 0 1 .05.016c.012.01.018.022.02.04a.054.054 0 0 1-.017.046.105.105 0 0 1-.056.02l-.643.055a.098.098 0 0 1-.059-.01.056.056 0 0 1-.021-.042.055.055 0 0 1 .009-.037.08.08 0 0 1 .036-.026l.053-.02a.068.068 0 0 0 .034-.03.127.127 0 0 0 .008-.065l-.067-.781c-.002-.024-.007-.04-.015-.05-.009-.01-.021-.015-.038-.017h-.072c-.018-.003-.03-.007-.039-.015a.046.046 0 0 1-.014-.03.05.05 0 0 1 .011-.04.15.15 0 0 1 .049-.032l.24-.112a.824.824 0 0 1 .097-.043.227.227 0 0 1 .05-.013c.02-.002.036.004.047.017a.14.14 0 0 1 .028.067Zm1.247-.918.367 1.7a.14.14 0 0 0 .024.06c.011.01.025.017.043.019l.054.003a.088.088 0 0 1 .043.016.049.049 0 0 1 .02.032.054.054 0 0 1-.009.046c-.01.012-.027.021-.053.027l-.532.114c-.026.006-.046.005-.06-.002a.056.056 0 0 1-.027-.038.056.056 0 0 1 .005-.038.08.08 0 0 1 .033-.031l.05-.026a.069.069 0 0 0 .03-.035.127.127 0 0 0-.001-.065l-.318-1.47c-.005-.024-.012-.04-.021-.048a.05.05 0 0 0-.038-.013l-.073.01a.074.074 0 0 1-.04-.01.048.048 0 0 1-.018-.03.049.049 0 0 1 .006-.038.135.135 0 0 1 .043-.04l.23-.145a.85.85 0 0 1 .078-.046.235.235 0 0 1 .054-.02c.03-.007.055-.004.074.01a.09.09 0 0 1 .036.058Zm.99.458.312.973a.143.143 0 0 0 .03.057c.012.01.027.015.044.015l.054-.003a.09.09 0 0 1 .045.012c.011.006.02.016.024.03a.054.054 0 0 1-.005.047c-.009.013-.026.024-.051.032l-.518.166c-.025.008-.045.01-.06.003a.055.055 0 0 1-.03-.035.055.055 0 0 1 0-.038.08.08 0 0 1 .03-.034l.047-.031A.068.068 0 0 0 25.24 22a.127.127 0 0 0-.007-.064l-.24-.75a.102.102 0 0 0-.027-.045c-.01-.008-.024-.01-.04-.008l-.07.016a.067.067 0 0 1-.041-.005.048.048 0 0 1-.021-.029.048.048 0 0 1 .002-.038.133.133 0 0 1 .04-.043l.214-.168a.82.82 0 0 1 .073-.053.242.242 0 0 1 .051-.026c.03-.01.055-.008.075.003.02.01.034.029.042.054Zm-.307-.217a.268.268 0 0 1-.187 0 .19.19 0 0 1-.11-.123.183.183 0 0 1 .018-.16.268.268 0 0 1 .153-.109.27.27 0 0 1 .188 0c.054.02.09.06.11.12a.19.19 0 0 1-.019.163.271.271 0 0 1-.153.109Zm1.132-.082a.215.215 0 0 0-.115.106.154.154 0 0 0 .003.131.17.17 0 0 0 .052.066.185.185 0 0 0 .099.029c.042.002.1-.004.173-.02.142-.033.257-.046.346-.038.09.007.16.03.212.07a.405.405 0 0 1 .123.156.38.38 0 0 1 .005.335c-.05.107-.154.197-.31.27a.57.57 0 0 1-.243.06.178.178 0 0 0-.067.015.07.07 0 0 0-.036.033 1.137 1.137 0 0 0-.018.042.06.06 0 0 1-.033.034.05.05 0 0 1-.042.002.139.139 0 0 1-.042-.035l-.198-.21a.154.154 0 0 1-.043-.07.059.059 0 0 1 .015-.055c.016-.016.033-.024.05-.023.018 0 .038.006.06.02a.76.76 0 0 0 .191.1c.06.02.119.026.173.022a.464.464 0 0 0 .159-.041c.072-.034.118-.073.14-.119a.157.157 0 0 0 0-.141.156.156 0 0 0-.06-.069.222.222 0 0 0-.114-.026.937.937 0 0 0-.204.026.974.974 0 0 1-.3.03.385.385 0 0 1-.2-.07.435.435 0 0 1-.127-.164.36.36 0 0 1-.032-.217.403.403 0 0 1 .097-.2.607.607 0 0 1 .211-.155.556.556 0 0 1 .243-.056.16.16 0 0 0 .069-.014.078.078 0 0 0 .04-.037l.02-.047a.063.063 0 0 1 .033-.033.045.045 0 0 1 .037-.001.098.098 0 0 1 .042.037l.172.21a.218.218 0 0 1 .039.07c.005.02 0 .038-.016.054-.016.017-.033.023-.052.02a.177.177 0 0 1-.066-.028.53.53 0 0 0-.263-.106.439.439 0 0 0-.223.037Zm.785-.349-.064.019a.123.123 0 0 1-.054.005.055.055 0 0 1-.03-.023c-.01-.016-.012-.03-.007-.045a.08.08 0 0 1 .034-.04l.071-.046a.11.11 0 0 0 .04-.04.145.145 0 0 0 .015-.064l.01-.256a.228.228 0 0 1 .018-.076.105.105 0 0 1 .038-.043.057.057 0 0 1 .048-.009c.016.004.03.016.043.035l.638.993a.248.248 0 0 0 .111.104c.04.016.079.01.117-.014a.129.129 0 0 0 .055-.06.168.168 0 0 0 .013-.064c0-.02 0-.04.002-.056a.05.05 0 0 1 .024-.04.042.042 0 0 1 .035-.006c.012.003.024.014.036.033.028.045.04.095.035.151a.359.359 0 0 1-.059.17.483.483 0 0 1-.15.145.407.407 0 0 1-.28.076c-.09-.014-.166-.072-.231-.174l-.411-.638c-.013-.02-.027-.033-.042-.037a.103.103 0 0 0-.056 0Zm.25-.159-.074-.116.385-.248a.082.082 0 0 1 .05-.016c.015 0 .027.008.036.022.013.02.014.045.003.072-.01.027-.04.055-.085.084l-.315.202Z"/></g><g filter="url(#g)"><path fill="#586069" fill-rule="evenodd" d="M33.613 13.028c0 6.044-4.9 10.943-10.943 10.943-6.044 0-10.943-4.9-10.943-10.943 0-6.044 4.899-10.943 10.943-10.943 6.043 0 10.943 4.9 10.943 10.943Zm-.267 0c0 5.896-4.78 10.676-10.676 10.676-5.897 0-10.677-4.78-10.677-10.676S16.773 2.352 22.67 2.352c5.896 0 10.676 4.78 10.676 10.676Z" clip-rule="evenodd"/></g><g filter="url(#h)"><path fill="#586069" fill-rule="evenodd" d="M22.667 6.088a6.94 6.94 0 1 0 0 13.879 6.94 6.94 0 0 0 0-13.879Zm-7.206 6.94a7.206 7.206 0 1 1 14.413 0 7.206 7.206 0 0 1-14.413 0Z" clip-rule="evenodd"/></g><g filter="url(#i)"><path fill="#586069" d="m16.061 17.263-.4.436a.47.47 0 0 0-.067.543l.284.52-.436-.402a.47.47 0 0 0-.543-.066l-.52.284.401-.436a.47.47 0 0 0 .067-.543l-.284-.52.435.401a.47.47 0 0 0 .544.067l.52-.284Z"/></g><g filter="url(#j)"><path fill="#586069" d="m29.2 16.89.519.283a.47.47 0 0 0 .543-.067l.436-.4-.284.519a.47.47 0 0 0 .067.543l.4.436-.519-.284a.47.47 0 0 0-.543.067l-.436.4.284-.519a.47.47 0 0 0-.067-.543l-.4-.436Z"/></g><g fill="#586069" filter="url(#k)"><path d="M18.636 16.005v-1.631h-.956v-.837h.956v-1.042h-.956v-.837h.956v-1.632h.889v1.632h1.024v-1.632h.889v1.632h.956v.837h-.956v1.042h.956v.837h-.956v1.631h-.889v-1.631h-1.024v1.631h-.889Zm.889-2.468h1.024v-1.042h-1.024v1.042Zm3.6 2.468v-.691c0-.422.068-.766.205-1.034.142-.273.345-.495.606-.666.262-.177.581-.322.957-.436l.547-.17a2.36 2.36 0 0 0 .563-.265c.154-.103.274-.228.359-.376a1.09 1.09 0 0 0 .128-.538v-.034c0-.308-.105-.55-.316-.726-.21-.182-.492-.274-.846-.274-.352 0-.64.097-.862.29-.222.189-.333.468-.333.838v.145h-.99v-.128c0-.433.096-.8.29-1.102a1.89 1.89 0 0 1 .785-.692c.33-.159.7-.239 1.11-.239.41 0 .778.08 1.102.24.33.153.587.37.769.649.188.279.282.606.282.982v.085c0 .382-.077.703-.23.965a1.888 1.888 0 0 1-.641.65 4.073 4.073 0 0 1-.914.41l-.53.162a2.95 2.95 0 0 0-.615.256.84.84 0 0 0-.316.316.898.898 0 0 0-.094.435v.06h3.289v.888h-4.305Z"/></g><g filter="url(#l)" opacity=".3"><path stroke="#fff" stroke-width=".427" d="M22.722 6.056c3.94.029 7.104 3.195 7.075 7.064-.028 3.868-3.24 6.987-7.179 6.957-3.939-.029-7.103-3.194-7.075-7.063.029-3.868 3.24-6.987 7.179-6.958Z"/></g><g filter="url(#m)"><g filter="url(#n)"><path fill="#586069" d="m15.112 15.597-1.815.437-.174-.72a.653.653 0 0 1-.005-.313.536.536 0 0 1 .136-.25.55.55 0 0 1 .272-.144l.035-.008a.55.55 0 0 1 .31.008.539.539 0 0 1 .237.16c.064.077.11.168.136.277l.107.44.697-.168.066.28h-.002Zm-1.02-.051-.099-.414a.348.348 0 0 0-.136-.216.284.284 0 0 0-.234-.037l-.027.005a.285.285 0 0 0-.195.139.357.357 0 0 0-.021.256l.098.411.609-.147.005.003Z"/></g><g filter="url(#o)"><path fill="#586069" d="m14.76 13.924-1.868.032-.013-.784a.74.74 0 0 1 .056-.307.48.48 0 0 1 .168-.209.462.462 0 0 1 .267-.077h.03c.117 0 .21.024.282.08a.45.45 0 0 1 .152.203h.043c0-.07.024-.123.064-.165.04-.043.102-.064.179-.064l.62-.011.005.29-.58.011a.163.163 0 0 0-.114.04c-.03.024-.043.067-.04.12l.01.569.737-.013.005.288-.002-.003Zm-1.003-.272-.008-.464a.329.329 0 0 0-.083-.238.284.284 0 0 0-.216-.083h-.021a.277.277 0 0 0-.214.088.34.34 0 0 0-.075.243l.008.465.609-.011Z"/></g><g filter="url(#p)"><path fill="#586069" d="M14.967 11.453c-.048.224-.15.39-.304.494-.155.104-.35.13-.59.08l-.427-.09c-.237-.052-.406-.158-.504-.316-.1-.16-.123-.352-.075-.576.048-.225.15-.39.304-.497.155-.107.352-.133.59-.082l.427.09c.238.051.406.158.505.318.098.16.122.352.074.576v.003Zm-.253-.056c.032-.144.013-.264-.056-.36a.5.5 0 0 0-.32-.193l-.45-.096a.503.503 0 0 0-.37.043c-.101.059-.168.163-.198.307a.448.448 0 0 0 .056.358.492.492 0 0 0 .32.195l.45.096a.49.49 0 0 0 .37-.046.44.44 0 0 0 .198-.304Z"/></g><g filter="url(#q)"><path fill="#586069" d="M15.497 9.835a.64.64 0 0 1-.331.34c-.142.055-.3.042-.47-.038l-.144-.067.123-.261.144.066c.09.043.173.051.25.027.078-.024.137-.083.182-.176.043-.09.048-.17.014-.238-.032-.069-.097-.122-.187-.168l-.948-.443-.139.296-.237-.112.347-.744.237.11-.088.189.948.443c.176.082.288.19.339.325.05.134.037.286-.043.451h.003Z"/></g><g filter="url(#r)"><path fill="#586069" d="m16.027 8.753-1.492-1.124.707-.94.209.158-.534.71.427.323.491-.651.208.157-.491.649.438.328.542-.72.208.157-.716.95.003.003Z"/></g><g filter="url(#s)"><path fill="#586069" d="M17.571 7.075c-.173.15-.352.22-.536.209-.184-.011-.358-.11-.518-.294l-.286-.331c-.16-.184-.23-.368-.213-.555.016-.184.112-.352.285-.5.171-.146.342-.21.516-.197.173.016.33.104.472.267l.01.013-.216.187-.015-.018a.461.461 0 0 0-.28-.168c-.105-.017-.212.02-.318.114a.44.44 0 0 0-.169.315.494.494 0 0 0 .145.35l.293.339a.501.501 0 0 0 .326.192.436.436 0 0 0 .339-.12c.107-.09.16-.19.157-.296a.466.466 0 0 0-.122-.302l-.03-.035.216-.187.024.03c.142.163.206.33.195.504-.01.174-.101.334-.272.48l-.003.003Z"/></g><g filter="url(#t)"><path fill="#586069" d="m18.805 6.164-.769-1.412-.504.275-.126-.23 1.26-.685.125.23-.504.274.769 1.412-.254.139.003-.003Z"/></g><g filter="url(#u)"><path fill="#586069" d="M21.336 5.287c-.227.04-.417.01-.574-.094-.158-.101-.256-.275-.3-.512l-.077-.43c-.042-.24-.01-.435.1-.587.109-.152.277-.248.504-.288.226-.04.416-.011.573.093.158.101.257.275.302.512l.078.43c.042.24.01.435-.102.587-.112.153-.28.249-.504.289Zm-.046-.257a.44.44 0 0 0 .313-.19.493.493 0 0 0 .055-.367l-.082-.452a.498.498 0 0 0-.182-.325.447.447 0 0 0-.36-.067.44.44 0 0 0-.31.19.498.498 0 0 0-.058.37l.082.452a.49.49 0 0 0 .185.325.44.44 0 0 0 .357.067V5.03Z"/></g><g filter="url(#v)"><path fill="#586069" d="m22.522 5.108.07-1.866 1.153.043-.011.262-.865-.032-.021.539.795.03-.01.26-.796-.029-.03.806-.287-.01.002-.003Z"/></g><g filter="url(#w)"><path fill="#586069" d="m25.237 5.515.524-1.52-.542-.186.085-.248 1.359.467-.086.248-.542-.187-.523 1.519-.272-.093h-.003Z"/></g><g filter="url(#x)"><path fill="#586069" d="m26.39 5.96.983-1.588.245.152-.421.681.667.414.422-.68.245.151-.982 1.588-.246-.152.425-.686-.668-.413-.424.686-.245-.153Z"/></g><g filter="url(#y)"><path fill="#586069" d="m27.93 6.995 1.3-1.34.846.82-.182.187-.638-.62-.373.385.584.566-.181.186-.585-.568-.382.392.649.628-.181.186-.855-.83-.002.008Z"/></g><g filter="url(#z)"><path fill="#586069" d="m29.625 8.935 1.567-1.057.125.26-1.412.925.019.04 1.633-.464.22.454-1.386.985.019.037 1.604-.523.125.259-1.804.56-.219-.454 1.404-.998-.019-.037-1.657.472-.219-.456v-.003Z"/></g><g filter="url(#A)"><path fill="#586069" d="m30.508 11.047 1.833-.36.227 1.155-.256.051-.17-.873-.527.104.158.799-.256.05-.158-.798-.536.107.173.886-.256.05-.23-1.168-.002-.003Z"/></g><g filter="url(#B)"><path fill="#586069" d="m30.768 12.636 1.869.016-.01 1.177h-.262l.008-.892-.537-.005-.005.814h-.262l.006-.817-.548-.005-.008.902h-.261l.01-1.193v.003Z"/></g><g filter="url(#C)"><path fill="#586069" d="m30.71 14.239 1.826.4-.061.28-.758-.165-.008.043.608.846-.08.368-.718-1.022-1.113.648.083-.378.929-.529.01-.043-.774-.17.062-.283-.006.005Z"/></g></g></g><g filter="url(#D)"><path fill="#fff" d="m15.49 4.327-.118.866.809.331-.866-.117-.331.808.117-.866-.808-.33.866.117.33-.809Z"/></g><g filter="url(#E)"><path fill="#fff" d="m30.122 19.413.133 1.044 1.044.133-1.044.133-.133 1.044-.133-1.044-1.044-.133 1.044-.133.133-1.044Z"/></g><mask id="F" width="10" height="29" x="35" y="0" maskUnits="userSpaceOnUse" style="mask-type:luminance"><path fill="#fff" d="M35.022.697h9.865v28.185h-9.865V.697Z"/></mask><g mask="url(#F)"><path fill="#CBD5E1" d="M39.11 4.96c4.827 7.434 3.453 17.827-3.91 23.429-.141.141-.212.317-.141.423.07.105.282.105.423-.035a17.482 17.482 0 0 0 6.447-11.169c.67-4.439-.317-8.948-2.819-12.648Zm-.387 20.928c1.022.88 3.065.14 4.087-1.903-1.233-.599-2.89.352-4.087 1.903Zm-1.092-4.616c-.67 1.374-.67 3.1.352 4.017 1.198-1.55.846-3.453-.352-4.017Zm2.994 1.55c1.163.705 2.995-.422 3.594-2.607-1.303-.317-2.713.916-3.594 2.608Zm-2.008-4.227c-.387 1.48-.035 3.17 1.163 3.805h.035c.846-1.727.106-3.488-1.198-3.805Zm3.242.951c1.303.423 2.853-1.022 3.03-3.276-1.34-.071-2.502 1.444-3.03 3.276Zm-2.784-3.734c-.105 1.514.6 3.065 1.903 3.487v-.035c.493-1.832-.529-3.382-1.903-3.452Zm5.708-3.559c-1.34.247-2.185 1.938-2.325 3.805 1.338.176 2.607-1.55 2.325-3.805Zm-5.778.74c.211 1.515 1.162 2.854 2.501 3.03l.035-.035c.106-1.868-1.197-3.206-2.536-2.995Zm-.6-2.748c.459 1.444 1.692 2.572 3.03 2.43-.21-1.866-1.76-2.923-3.03-2.43Zm5.532-1.903c-1.233.494-1.761 2.29-1.585 4.122l.035.106h.035c1.304-.176 2.185-2.008 1.55-4.122l-.035-.106Zm-6.658-.74c.774 1.34 2.149 2.22 3.452 1.833-.564-1.797-2.29-2.572-3.453-1.832Zm5.037-2.959c-1.127.74-1.268 2.678-.704 4.51 1.303-.388 1.867-2.502.704-4.51Zm-6.693.564c1.056 1.198 2.607 1.797 3.805 1.163-.952-1.692-2.854-2.114-3.805-1.163ZM39.99 1.26c-.986.986-.704 2.96.247 4.615 1.163-.634 1.303-2.818-.247-4.615ZM35.06.697c.634 1.656 1.973 2.96 3.594 3.594 0-1.691-1.832-3.559-3.594-3.594Z"/></g><path fill="#0D0D0D" d="M58.202 5.49c0 .44-.113.82-.34 1.142-.223.322-.541.57-.955.746-.409.176-.893.264-1.451.264-.373 0-.713-.038-1.02-.116a2.86 2.86 0 0 1-.808-.33l.071-.452c.122.084.254.155.396.213.142.054.293.097.452.127.16.027.325.04.497.04.312 0 .59-.064.833-.192.244-.129.435-.319.574-.569.139-.25.208-.555.208-.914 0-.416-.083-.777-.249-1.081a1.747 1.747 0 0 0-.69-.711c-.298-.17-.649-.254-1.051-.254h-.401v5.758c0 .074.02.138.06.192.041.051.106.083.194.097l.441.06a.329.329 0 0 1 .183.087c.037.04.056.1.056.178a.218.218 0 0 1-.076.172c-.048.041-.124.061-.23.061h-2.65c-.104 0-.182-.02-.233-.06a.218.218 0 0 1-.075-.173c0-.129.07-.215.213-.26l.294-.065a.37.37 0 0 0 .182-.107.258.258 0 0 0 .067-.182V3.748a.258.258 0 0 0-.067-.183.37.37 0 0 0-.182-.106l-.294-.066c-.143-.044-.214-.13-.214-.259 0-.074.026-.132.076-.173.051-.04.129-.06.234-.06h2.462c.738 0 1.368.111 1.889.335.521.22.919.526 1.193.918.274.39.411.835.411 1.336Zm4.902 1.518c0 .18-.051.318-.153.417-.101.094-.25.142-.446.142h-3.168V7.18h2.076c.173 0 .26-.078.26-.234 0-.446-.082-.785-.245-1.015a.758.758 0 0 0-.655-.35.875.875 0 0 0-.558.193c-.163.128-.29.313-.381.553a2.414 2.414 0 0 0-.137.863c0 .653.152 1.144.457 1.472.308.329.717.493 1.229.493.298 0 .558-.06.781-.178.227-.118.403-.288.528-.508a.975.975 0 0 1 .143-.137.205.205 0 0 1 .112-.035c.054 0 .092.025.116.076a.385.385 0 0 1 .036.173 1.374 1.374 0 0 1-.305.792 2.01 2.01 0 0 1-.766.578c-.322.146-.69.219-1.107.219-.491 0-.926-.1-1.305-.3a2.266 2.266 0 0 1-.894-.848c-.213-.365-.32-.792-.32-1.28 0-.51.102-.964.305-1.36.207-.396.501-.706.883-.929.383-.223.84-.335 1.371-.335.454 0 .84.083 1.158.249.321.162.565.389.73.68.17.288.255.62.255.995Zm5.211 0c0 .18-.051.318-.153.417-.101.094-.25.142-.447.142h-3.168V7.18h2.077c.172 0 .259-.078.259-.234 0-.446-.081-.785-.244-1.015a.759.759 0 0 0-.655-.35.873.873 0 0 0-.558.193c-.163.128-.29.313-.381.553a2.414 2.414 0 0 0-.137.863c0 .653.152 1.144.457 1.472.308.329.717.493 1.228.493.298 0 .56-.06.782-.178.227-.118.403-.288.528-.508a1 1 0 0 1 .142-.137.208.208 0 0 1 .112-.035.12.12 0 0 1 .117.076.377.377 0 0 1 .036.173 1.374 1.374 0 0 1-.305.792 2.01 2.01 0 0 1-.766.578 2.654 2.654 0 0 1-1.107.219c-.491 0-.926-.1-1.306-.3a2.27 2.27 0 0 1-.893-.848c-.213-.365-.32-.792-.32-1.28 0-.51.102-.964.305-1.36.206-.396.5-.706.883-.929.383-.223.84-.335 1.371-.335.454 0 .84.083 1.158.249.321.162.565.389.73.68.17.288.255.62.255.995Zm2.366.31c0-.49.07-.902.209-1.234.138-.331.322-.58.548-.746.227-.17.47-.254.731-.254.321 0 .57.091.746.274.177.183.264.445.264.787 0 .305-.062.532-.187.68a.608.608 0 0 1-.488.224c-.203 0-.357-.054-.462-.163-.105-.108-.157-.259-.157-.451v-.183c-.004-.109-.029-.188-.076-.239-.048-.054-.125-.081-.234-.081a.52.52 0 0 0-.345.147 1.084 1.084 0 0 0-.27.447c-.067.2-.1.455-.1.767l-.179.025Zm.097-1.884.081 1.153V9.19c0 .099.019.171.056.219.04.044.112.074.213.091l.437.066a.317.317 0 0 1 .173.076c.04.037.06.088.06.153 0 .067-.025.12-.076.157a.333.333 0 0 1-.208.056h-2.37c-.096 0-.165-.019-.209-.056a.189.189 0 0 1-.066-.152.19.19 0 0 1 .045-.127.325.325 0 0 1 .143-.092l.198-.05a.23.23 0 0 0 .132-.102.472.472 0 0 0 .045-.234V6.297c0-.088-.013-.15-.04-.187-.024-.038-.064-.061-.122-.071l-.27-.02a.242.242 0 0 1-.13-.067.167.167 0 0 1-.042-.117c0-.057.017-.103.051-.137a.544.544 0 0 1 .183-.101l.924-.335c.166-.065.288-.105.365-.122.078-.02.14-.03.183-.03.075 0 .13.025.168.076.037.047.063.13.076.248Zm4.742-2.65v6.412c0 .105.014.183.04.234a.254.254 0 0 0 .138.101l.193.051c.064.02.111.05.142.086a.19.19 0 0 1 .046.132.189.189 0 0 1-.067.153c-.043.037-.115.056-.213.056h-2c-.095 0-.164-.019-.208-.056a.189.189 0 0 1-.066-.153c0-.05.015-.093.046-.126a.319.319 0 0 1 .142-.092l.198-.05a.248.248 0 0 0 .132-.107.437.437 0 0 0 .045-.229v-5.56c0-.084-.013-.145-.04-.182-.024-.037-.064-.06-.122-.071l-.269-.02a.269.269 0 0 1-.132-.071.17.17 0 0 1-.04-.117c0-.054.016-.098.05-.132a.544.544 0 0 1 .183-.102l.944-.345c.135-.05.242-.086.32-.107a.822.822 0 0 1 .203-.03c.111 0 .195.03.249.091a.315.315 0 0 1 .086.234Zm3.04 2.645v3.767a.52.52 0 0 0 .04.234c.03.047.076.081.137.101l.193.051c.064.02.112.05.142.086a.19.19 0 0 1 .046.132.189.189 0 0 1-.066.153c-.044.037-.115.056-.213.056h-2c-.095 0-.165-.02-.209-.056a.19.19 0 0 1-.066-.153c0-.05.015-.093.046-.127a.325.325 0 0 1 .142-.091l.198-.05a.249.249 0 0 0 .132-.107.436.436 0 0 0 .046-.229V6.287c0-.088-.014-.15-.04-.188-.025-.037-.066-.06-.123-.07l-.269-.021a.242.242 0 0 1-.132-.066.17.17 0 0 1-.04-.117c0-.058.015-.103.045-.137a.538.538 0 0 1 .188-.102l.944-.345a3.92 3.92 0 0 1 .315-.101.87.87 0 0 1 .203-.03c.115 0 .2.03.254.09a.309.309 0 0 1 .086.229Zm-.828-1.097c-.27 0-.49-.07-.655-.208a.702.702 0 0 1-.244-.553c0-.227.082-.408.244-.544.166-.138.384-.208.655-.208.274 0 .493.07.655.208a.665.665 0 0 1 .249.544.694.694 0 0 1-.25.553c-.161.139-.38.208-.654.208ZM81.57 5.54c-.234 0-.417.06-.549.179a.566.566 0 0 0-.193.441.65.65 0 0 0 .071.305c.051.088.146.17.284.244.14.074.342.144.61.208.521.108.924.244 1.208.406.284.162.482.35.594.564.112.21.168.445.168.705 0 .47-.166.846-.498 1.127-.331.278-.814.417-1.447.417a2.04 2.04 0 0 1-.549-.061 2.87 2.87 0 0 1-.35-.112.612.612 0 0 0-.243-.06c-.071 0-.13.02-.178.06a4.114 4.114 0 0 0-.127.112.22.22 0 0 1-.163.06c-.06 0-.106-.016-.136-.05a.51.51 0 0 1-.087-.188l-.335-1.02a.63.63 0 0 1-.035-.29.213.213 0 0 1 .137-.157c.078-.027.145-.026.203.005a.42.42 0 0 1 .162.157c.152.264.315.476.488.635.172.156.353.269.543.34.193.071.39.107.589.107.291 0 .508-.06.65-.178a.58.58 0 0 0 .218-.472.577.577 0 0 0-.091-.32c-.061-.098-.175-.186-.34-.264a3.419 3.419 0 0 0-.721-.228c-.437-.095-.786-.217-1.047-.366a1.45 1.45 0 0 1-.558-.548 1.576 1.576 0 0 1-.167-.742c0-.294.076-.551.228-.771.153-.22.364-.391.635-.513.27-.125.583-.188.94-.188.23 0 .414.02.552.06a2.2 2.2 0 0 1 .34.128c.092.04.175.06.25.06.08 0 .145-.02.192-.06l.137-.127a.23.23 0 0 1 .163-.061c.05 0 .093.019.127.056.037.034.064.095.08.183l.25.97a.838.838 0 0 1 .015.294c-.01.07-.054.122-.132.152-.075.03-.14.027-.198-.01a.606.606 0 0 1-.173-.198c-.21-.359-.448-.613-.715-.762a1.59 1.59 0 0 0-.802-.228Zm3.008.158-.234-.07a.45.45 0 0 1-.172-.092.185.185 0 0 1-.05-.127c0-.068.02-.119.065-.152a.296.296 0 0 1 .188-.056h.31a.412.412 0 0 0 .203-.046.573.573 0 0 0 .167-.162l.553-.777a.885.885 0 0 1 .204-.193.36.36 0 0 1 .193-.061c.07 0 .127.022.167.066.04.044.061.108.061.193v4.34c0 .238.046.419.137.544a.464.464 0 0 0 .391.188.501.501 0 0 0 .29-.071.619.619 0 0 0 .167-.173c.04-.064.08-.12.117-.167a.203.203 0 0 1 .152-.082c.05 0 .09.017.117.051.03.034.046.09.046.168a.904.904 0 0 1-.193.538 1.332 1.332 0 0 1-.513.406 1.77 1.77 0 0 1-.751.152c-.434 0-.774-.108-1.02-.325-.245-.22-.367-.55-.367-.99V5.998c0-.088-.019-.153-.055-.193a.354.354 0 0 0-.173-.107Zm1.091.005v-.502h1.681a.3.3 0 0 1 .183.05c.047.03.07.077.07.138 0 .088-.043.162-.13.223-.089.06-.231.091-.428.091H85.67Z"/><path stroke="#94A3B8" stroke-linecap="round" stroke-width=".24" d="M90.516 2.579v7.436"/><path fill="#0D0D0D" d="M93.166 9.987c-.084 0-.127-.03-.127-.091 0-.067.061-.11.182-.128l.183-.027c.133-.018.224-.049.273-.091.054-.049.094-.137.118-.264l1.24-5.357c.03-.128.03-.213 0-.255-.031-.043-.107-.076-.228-.1l-.183-.037c-.079-.018-.118-.051-.118-.1 0-.073.055-.11.164-.11h1.648c.092 0 .129.037.11.11-.012.055-.051.088-.118.1l-.256.037c-.133.018-.224.051-.273.1-.049.048-.088.137-.118.264L94.478 9.14c-.048.218-.018.376.092.473.11.098.267.146.473.146.23 0 .468-.088.71-.264.244-.176.445-.453.602-.83l.273-.637c.031-.079.08-.118.146-.118.091 0 .122.051.091.155l-.51 1.712c-.037.14-.127.21-.273.21h-2.915Zm4.784.082a.574.574 0 0 1-.51-.283c-.121-.188-.182-.464-.182-.829 0-.346.049-.692.146-1.038a4.801 4.801 0 0 1 .975-1.84 2.9 2.9 0 0 1 .683-.574c.243-.146.482-.219.72-.219.115 0 .224.024.327.073a.567.567 0 0 1 .256.21c.036.054.072.082.109.082.036 0 .073-.028.109-.082a.639.639 0 0 1 .164-.183.21.21 0 0 1 .118-.045c.08 0 .11.042.092.127l-.811 3.49c-.091.394-.03.592.182.592.14 0 .264-.095.374-.283.115-.188.23-.48.346-.874.018-.067.058-.1.118-.1.042 0 .07.018.082.054a.23.23 0 0 1 0 .128c-.115.57-.27.98-.465 1.23-.194.242-.428.364-.701.364a.53.53 0 0 1-.51-.3c-.097-.201-.106-.474-.028-.82l.119-.502c.012-.042.003-.067-.027-.073-.025-.006-.046.01-.064.046-.334.613-.632 1.042-.893 1.284-.255.243-.498.365-.729.365Zm.228-.465c.146 0 .307-.088.483-.264.176-.176.349-.404.52-.683a7.439 7.439 0 0 0 .828-1.831 2.67 2.67 0 0 0 .137-.756c0-.37-.131-.556-.392-.556-.158 0-.325.073-.5.219-.177.14-.347.33-.511.573a5.58 5.58 0 0 0-.747 1.786 4.13 4.13 0 0 0-.119.966c0 .212.025.358.073.437a.27.27 0 0 0 .228.11Zm4.322.465c-.225 0-.379-.1-.464-.3-.08-.207-.073-.478.018-.812l.719-2.641c.049-.177.061-.313.036-.41-.024-.098-.078-.146-.163-.146-.14 0-.283.106-.428.319-.14.212-.262.507-.365.883-.018.067-.058.1-.118.1-.085 0-.113-.06-.082-.182.139-.51.321-.902.546-1.175.231-.28.483-.419.757-.419.218 0 .364.1.436.3.073.201.062.475-.036.82l-.729 2.643c-.115.419-.075.628.119.628.122 0 .261-.082.419-.246.158-.164.322-.389.492-.674a9.47 9.47 0 0 0 .519-.975 12.27 12.27 0 0 0 .811-2.341c.018-.067.061-.1.128-.1h.364c.085 0 .118.04.1.118l-.857 3.662c-.066.286-.014.429.156.429.255 0 .522-.386.801-1.157.025-.08.067-.119.128-.119.036 0 .06.015.073.046.018.03.018.07 0 .118-.164.516-.358.917-.583 1.203-.225.285-.462.428-.711.428-.437 0-.583-.319-.437-.957l.236-1.01c.013-.043.004-.068-.027-.074-.024-.006-.045.01-.064.046-.352.729-.677 1.245-.974 1.548-.298.298-.571.447-.82.447Zm4.061-.201.866-3.634a.61.61 0 0 0 .009-.31c-.018-.08-.072-.119-.163-.119-.11 0-.231.082-.365.246-.128.158-.273.462-.438.911-.024.08-.066.119-.127.119-.091 0-.115-.055-.073-.164.134-.42.273-.747.419-.984.152-.237.304-.404.456-.501a.791.791 0 0 1 .419-.146c.2 0 .343.076.428.228.085.146.088.389.009.729l-.228.984c-.005.042.003.066.027.072.025.007.046-.009.064-.045.237-.492.465-.88.684-1.166.218-.292.425-.498.619-.62.195-.121.371-.182.528-.182.225 0 .389.091.492.273.104.183.104.462 0 .839l-.692 2.641c-.042.17-.045.298-.009.383.037.085.103.128.2.128.122 0 .24-.08.356-.237.121-.164.246-.471.373-.92.018-.067.058-.1.119-.1.048 0 .076.018.081.054a.212.212 0 0 1 0 .128c-.115.413-.239.738-.373.974-.133.231-.27.392-.41.483a.718.718 0 0 1-.41.137.537.537 0 0 1-.492-.273c-.109-.183-.115-.465-.018-.848l.702-2.642c.067-.236.075-.4.027-.491-.043-.092-.107-.137-.191-.137-.134 0-.286.085-.456.255-.17.164-.343.392-.519.683a9.77 9.77 0 0 0-.52.975c-.169.364-.324.744-.464 1.139-.134.394-.243.78-.328 1.157-.018.066-.061.1-.128.1h-.373c-.085 0-.119-.04-.101-.119Zm5.561.201a1.02 1.02 0 0 1-.829-.41c-.218-.28-.328-.635-.328-1.066 0-.407.064-.805.191-1.193.134-.395.31-.75.529-1.066a3.08 3.08 0 0 1 .738-.765c.273-.189.547-.283.82-.283.291 0 .537.08.738.237a.16.16 0 0 1 .054.064c.006.012.003.042-.009.09l-.246 1.194c-.018.085-.058.128-.118.128-.067 0-.106-.046-.119-.137l-.046-.647c-.018-.279-.06-.461-.127-.546-.061-.085-.152-.128-.273-.128-.17 0-.344.085-.519.255a2.532 2.532 0 0 0-.492.674c-.146.28-.264.593-.355.939a4.22 4.22 0 0 0-.128 1.038c0 .766.249 1.148.747 1.148.237 0 .449-.11.638-.328.194-.218.373-.559.537-1.02.018-.06.06-.091.127-.091.037 0 .058.015.064.045a.431.431 0 0 1-.018.155 2.52 2.52 0 0 1-.328.884 2.027 2.027 0 0 1-.565.61c-.212.146-.44.219-.683.219Zm4.835.001a.536.536 0 0 1-.492-.274c-.109-.182-.116-.465-.018-.847l.701-2.642c.067-.237.076-.4.027-.492-.042-.091-.106-.137-.191-.137-.133 0-.285.085-.456.255a3.928 3.928 0 0 0-.519.684c-.176.285-.349.61-.519.974-.164.359-.316.738-.455 1.14-.14.394-.252.78-.337 1.156-.019.067-.061.1-.128.1h-.383c-.085 0-.118-.04-.1-.118l1.33-5.712c.03-.11.03-.185 0-.228-.024-.042-.079-.067-.164-.073l-.273-.027c-.091-.006-.13-.045-.119-.118.013-.055.055-.088.128-.1.219-.037.413-.08.583-.128a1.24 1.24 0 0 0 .41-.21.23.23 0 0 1 .137-.054c.072 0 .1.045.082.136l-.893 3.872c-.006.043.003.067.027.073.024.006.046-.01.064-.046.243-.498.473-.89.693-1.175.218-.285.421-.489.61-.61.194-.122.37-.182.528-.182.225 0 .389.09.492.273.103.182.103.462 0 .838l-.692 2.642c-.043.17-.046.298-.01.383.037.085.104.127.201.127.121 0 .24-.079.355-.237.116-.164.24-.47.374-.92.018-.067.057-.1.118-.1.049 0 .076.018.082.055a.212.212 0 0 1 0 .127c-.115.413-.24.738-.373.975-.134.23-.27.392-.41.483a.723.723 0 0 1-.41.136Zm.708 1.784c-.079 0-.118-.033-.118-.1 0-.06.048-.097.145-.11l.128-.017a.519.519 0 0 0 .273-.11c.055-.048.097-.14.128-.273l1.211-5.23c.013-.048.003-.084-.027-.108-.024-.03-.061-.03-.109 0-.061.03-.119.063-.173.1-.055.03-.11.064-.165.1-.054.036-.099.049-.136.036a.095.095 0 0 1-.055-.09c0-.043.031-.086.092-.128a3.75 3.75 0 0 1 .528-.3.329.329 0 0 0 .191-.238l.119-.519c.03-.127.109-.191.236-.191h.165c.072 0 .127.021.163.064.037.042.046.103.027.182l-.063.264c-.018.103.021.146.118.127.14-.018.274-.027.401-.027.449 0 .817.128 1.102.383.286.255.429.647.429 1.175 0 .413-.076.814-.228 1.202a3.855 3.855 0 0 1-.601 1.03 3.276 3.276 0 0 1-.821.729 1.735 1.735 0 0 1-.892.264c-.164 0-.319-.034-.464-.1-.092-.043-.146-.019-.164.072l-.274 1.203c-.03.134-.03.222 0 .264.036.043.112.073.228.091l.237.037c.109.018.164.054.164.109 0 .073-.052.11-.155.11h-1.64Zm1.695-2.915c-.11.601.021.902.391.902.213 0 .428-.088.647-.264.219-.182.422-.422.61-.72a4.33 4.33 0 0 0 .456-1.02 3.94 3.94 0 0 0 .173-1.157c0-.407-.088-.698-.264-.875-.176-.182-.435-.273-.775-.273-.303 0-.476.103-.519.31l-.719 3.097Zm3.907 1.13a.575.575 0 0 1-.511-.283c-.121-.188-.182-.464-.182-.829 0-.346.048-.692.146-1.038.097-.352.231-.686.4-1.002a4.55 4.55 0 0 1 .575-.838c.218-.243.446-.435.682-.574.244-.146.484-.219.72-.219a.76.76 0 0 1 .329.073.573.573 0 0 1 .254.21c.037.054.073.082.11.082.036 0 .072-.028.109-.082a.624.624 0 0 1 .164-.183.21.21 0 0 1 .118-.045c.08 0 .11.042.091.127l-.81 3.49c-.092.394-.031.592.182.592.14 0 .264-.095.373-.283.116-.188.231-.48.347-.874.018-.067.057-.1.118-.1.043 0 .07.018.082.054a.23.23 0 0 1 0 .128c-.116.57-.27.98-.464 1.23-.195.242-.429.364-.702.364-.237 0-.407-.1-.51-.3-.097-.201-.107-.474-.027-.82l.118-.502c.012-.042.003-.067-.027-.073-.025-.006-.046.01-.064.046-.334.613-.631 1.042-.893 1.284-.255.243-.498.365-.728.365Zm.227-.465c.146 0 .307-.088.483-.264.176-.176.349-.404.519-.683a7.51 7.51 0 0 0 .829-1.831 2.67 2.67 0 0 0 .137-.756c0-.37-.131-.556-.392-.556-.158 0-.325.073-.501.219-.176.14-.346.33-.51.573-.158.243-.304.52-.437.83a6.029 6.029 0 0 0-.31.956c-.079.328-.118.65-.118.966 0 .212.024.358.073.437.054.073.13.11.227.11Zm4.098.466a.581.581 0 0 1-.519-.283c-.122-.188-.182-.465-.182-.829 0-.346.048-.692.145-1.039a4.792 4.792 0 0 1 .975-1.84c.218-.243.446-.434.683-.574a1.4 1.4 0 0 1 .72-.218c.164 0 .307.042.428.127.085.055.137.037.155-.054l.292-1.203c.03-.11.03-.185 0-.228-.025-.042-.08-.067-.165-.073l-.273-.027c-.091-.006-.13-.045-.118-.118.012-.055.054-.088.127-.1.219-.037.413-.08.583-.128a1.24 1.24 0 0 0 .41-.21.235.235 0 0 1 .137-.054c.073 0 .1.045.082.136l-1.294 5.603c-.091.395-.03.592.182.592.14 0 .265-.094.374-.282.116-.189.231-.48.346-.875.019-.067.058-.1.118-.1.043 0 .07.018.083.055a.23.23 0 0 1 0 .127c-.116.571-.277.981-.483 1.23-.201.243-.438.364-.711.364-.237 0-.407-.1-.51-.3-.097-.2-.106-.474-.027-.82l.1-.42c.012-.042.003-.066-.028-.072-.024-.006-.045.009-.063.045-.292.571-.568.975-.829 1.212s-.508.355-.738.355Zm.219-.465c.145 0 .306-.088.482-.264.177-.177.35-.404.519-.684a7.2 7.2 0 0 0 .483-.902c.146-.321.261-.631.347-.929.091-.297.136-.55.136-.756 0-.37-.131-.556-.391-.556-.158 0-.326.073-.502.22-.176.139-.346.33-.509.573-.158.243-.305.52-.438.829a6.133 6.133 0 0 0-.31.957c-.079.327-.118.65-.118.965 0 .213.027.359.082.437.061.073.134.11.219.11Z"/><g filter="url(#G)"><path fill="#0D0D0D" d="M52.414 27.121c-.14 0-.21-.051-.21-.155 0-.084.06-.14.182-.169l.325-.056c.197-.038.324-.09.38-.155.066-.066.099-.197.099-.395v-8.286c0-.198-.033-.33-.099-.395-.056-.066-.183-.117-.38-.155l-.325-.056c-.122-.028-.183-.085-.183-.17 0-.103.07-.154.211-.154h2.946c.554 0 1.043.122 1.465.366.423.235.752.564.987.986.235.423.352.912.352 1.466 0 .536-.117 1.01-.352 1.424a2.544 2.544 0 0 1-.972.972c-.414.225-.893.338-1.438.338h-1.014c-.132 0-.198.066-.198.197v3.41c0 .198.038.334.113.41.075.065.244.122.507.169l.522.084c.103.019.155.07.155.155 0 .113-.07.17-.212.17h-2.86ZM54.19 21.4c0 .516.315.775.944.775.611 0 1.09-.216 1.438-.649.357-.432.535-1.023.535-1.775 0-.77-.178-1.367-.535-1.79-.357-.423-.864-.634-1.522-.634-.573 0-.86.188-.86.564V21.4Zm6.48-.564c.385-.658.85-.986 1.395-.986.31 0 .54.093.69.281.15.179.226.38.226.606a.66.66 0 0 1-.141.437c-.085.113-.22.17-.409.17-.15 0-.263-.034-.338-.1a1.197 1.197 0 0 1-.169-.253.848.848 0 0 0-.14-.24c-.057-.075-.151-.112-.283-.112-.169 0-.329.103-.479.31-.15.197-.277.465-.38.803a4.32 4.32 0 0 0-.141 1.156v3.27c0 .196.028.337.084.422.066.084.197.136.395.155l.38.042c.104.019.155.07.155.155 0 .113-.07.17-.211.17h-2.382c-.14 0-.211-.052-.211-.156 0-.084.061-.14.183-.169l.17-.028c.197-.038.323-.094.38-.17.066-.084.098-.225.098-.422v-4.735c0-.17-.028-.282-.084-.338-.047-.066-.136-.108-.268-.127l-.296-.042c-.122-.01-.183-.061-.183-.155 0-.076.075-.127.225-.155.292-.047.512-.122.663-.226.16-.103.324-.23.493-.38.084-.085.155-.127.211-.127.085 0 .127.056.127.169v.76c0 .067.028.109.085.128.056.01.108-.028.155-.113Zm5.177 6.412c-.48 0-.911-.16-1.296-.479-.376-.329-.677-.775-.902-1.339-.226-.564-.339-1.193-.339-1.888 0-.696.113-1.32.339-1.875.225-.554.53-.995.916-1.324.385-.329.812-.494 1.282-.494.48 0 .907.165 1.282.494.386.329.691.77.916 1.325.226.554.339 1.178.339 1.874 0 .695-.113 1.324-.339 1.888-.216.564-.516 1.01-.901 1.339a1.98 1.98 0 0 1-1.297.48Zm0-.352c.977 0 1.466-1.118 1.466-3.354 0-2.227-.489-3.34-1.466-3.34s-1.466 1.113-1.466 3.34c0 2.236.489 3.354 1.466 3.354Zm4.499-8.3a.663.663 0 0 1-.508-.212.786.786 0 0 1-.197-.536c0-.216.066-.39.197-.521.132-.14.3-.211.508-.211a.62.62 0 0 1 .493.211.705.705 0 0 1 .197.521.754.754 0 0 1-.197.536.647.647 0 0 1-.493.211Zm-1.55 11.555c-.273 0-.499-.07-.677-.211a.668.668 0 0 1-.268-.55c0-.16.052-.3.155-.423a.485.485 0 0 1 .395-.169c.15 0 .258.038.324.113.066.085.117.178.155.282.037.103.084.192.14.268a.34.34 0 0 0 .283.127c.178 0 .314-.104.408-.31.094-.207.141-.498.141-.874v-6.962c0-.17-.028-.282-.084-.338-.047-.066-.137-.108-.268-.127l-.296-.042c-.122-.01-.183-.061-.183-.155 0-.076.075-.127.225-.155.291-.047.526-.122.705-.226a3.21 3.21 0 0 0 .521-.38c.085-.085.155-.127.212-.127.084 0 .127.056.127.169v6.44c0 1.128-.184 2.015-.55 2.664-.367.657-.855.986-1.466.986Zm5.676-2.903c-.45 0-.855-.15-1.212-.45-.357-.301-.643-.724-.86-1.27-.206-.553-.31-1.192-.31-1.916 0-.742.109-1.395.325-1.959.216-.563.512-1.005.887-1.324.376-.32.794-.48 1.255-.48.554 0 1 .23 1.339.691.347.451.521 1.189.521 2.213 0 .31-.118.465-.352.465h-2.678c-.188 0-.282.108-.282.324 0 .996.146 1.742.437 2.24.291.498.662.747 1.113.747.357 0 .649-.126.874-.38.226-.254.409-.681.55-1.283.028-.103.089-.154.183-.154.113 0 .155.093.127.281-.15.837-.39 1.424-.719 1.762a1.63 1.63 0 0 1-1.198.493Zm-1.127-4.383h1.423c.451 0 .677-.234.677-.704 0-.611-.076-1.09-.226-1.438-.15-.347-.376-.521-.676-.521-.367 0-.677.211-.93.634-.245.423-.404 1.024-.48 1.804-.018.15.052.225.212.225Zm5.967 4.383a1.75 1.75 0 0 1-1.127-.409c-.329-.281-.592-.68-.79-1.197-.197-.517-.295-1.133-.295-1.847 0-.798.117-1.493.352-2.085.245-.592.573-1.048.987-1.367a2.164 2.164 0 0 1 1.38-.494c.433 0 .771.085 1.015.254.094.066.141.17.141.31l.029 1.72c0 .14-.057.21-.17.21-.103 0-.169-.06-.197-.182a8.333 8.333 0 0 0-.38-1.198c-.123-.282-.25-.475-.38-.578a.655.655 0 0 0-.438-.17c-.188 0-.385.109-.592.325-.197.216-.366.569-.507 1.057-.132.48-.197 1.113-.197 1.902 0 1.006.127 1.762.38 2.27.263.507.602.76 1.015.76a1 1 0 0 0 .817-.408c.226-.273.418-.766.578-1.48.028-.103.085-.155.17-.155.112 0 .154.094.126.282-.103.657-.249 1.17-.437 1.536-.178.357-.395.606-.648.747a1.726 1.726 0 0 1-.832.197Zm4.31 0c-.328 0-.6-.113-.816-.338-.207-.235-.31-.616-.31-1.142v-5.27c0-.113-.057-.17-.17-.17h-.408c-.15 0-.226-.056-.226-.168 0-.076.043-.141.127-.198a3.34 3.34 0 0 0 .747-.69c.188-.254.352-.597.493-1.029.066-.197.146-.296.24-.296.103 0 .155.075.155.226v1.564c0 .131.066.197.197.197h.916c.15 0 .226.066.226.197 0 .132-.076.198-.226.198h-.916c-.131 0-.197.065-.197.197v5.256c0 .207.033.372.099.494.065.113.187.169.366.169.197 0 .357-.099.479-.296.132-.197.216-.517.254-.958.019-.132.08-.198.183-.198.113 0 .169.07.169.212-.028.723-.178 1.245-.45 1.564-.264.32-.574.48-.931.48Zm6.832 0c-.48 0-.912-.16-1.297-.479-.376-.329-.676-.775-.902-1.339-.225-.564-.338-1.193-.338-1.888 0-.696.113-1.32.338-1.875.226-.554.531-.995.916-1.324.385-.329.813-.494 1.283-.494.479 0 .906.165 1.282.494.385.329.69.77.916 1.325.226.554.338 1.178.338 1.874 0 .695-.112 1.324-.338 1.888-.216.564-.517 1.01-.902 1.339a1.98 1.98 0 0 1-1.296.48Zm0-.352c.977 0 1.465-1.118 1.465-3.354 0-2.227-.488-3.34-1.465-3.34-.977 0-1.466 1.113-1.466 3.34 0 2.236.489 3.354 1.466 3.354Zm4.09-.719v-5.51c0-.226-.113-.338-.339-.338h-.324c-.113 0-.169-.047-.169-.141 0-.094.056-.146.17-.155.44-.047.661-.24.661-.578v-.085c0-.488.07-.944.212-1.367.15-.422.362-.765.634-1.028a1.453 1.453 0 0 1 1.029-.395c.376 0 .69.108.944.324.254.216.38.475.38.775 0 .179-.047.315-.14.409a.476.476 0 0 1-.353.127c-.188 0-.324-.061-.408-.183a1.805 1.805 0 0 1-.184-.41 1.75 1.75 0 0 0-.183-.422c-.066-.122-.188-.183-.366-.183-.188 0-.339.108-.451.324-.104.207-.155.601-.155 1.184v1.24c0 .113.056.17.169.17h1.212c.14 0 .211.065.211.196 0 .132-.07.198-.211.198H95.67c-.113 0-.17.056-.17.169v5.68c0 .196.029.333.085.408.066.075.198.122.395.14l.747.071c.103.019.155.07.155.155 0 .113-.07.17-.212.17h-2.93c-.142 0-.212-.052-.212-.156 0-.103.06-.16.183-.169l.352-.028c.198-.019.324-.07.38-.155.067-.094.1-.24.1-.437Zm6.919.944c-.141 0-.212-.051-.212-.155 0-.103.062-.16.184-.169l.634-.099c.188-.028.315-.075.38-.14.066-.076.099-.212.099-.41v-8.455c0-.131-.028-.225-.085-.282-.056-.056-.173-.084-.352-.084-.347 0-.69.15-1.029.45-.338.302-.559.785-.662 1.453l-.07.465c-.019.122-.085.183-.198.183-.141 0-.202-.08-.183-.24l.127-2.55c.019-.217.103-.325.254-.325.065 0 .126.02.183.057.056.028.15.06.282.098.141.038.361.057.662.057h3.143c.3 0 .516-.02.648-.057a1.78 1.78 0 0 0 .296-.098.374.374 0 0 1 .183-.057c.15 0 .235.108.254.324l.126 2.551c.019.16-.042.24-.183.24-.112 0-.178-.061-.197-.183l-.07-.465c-.094-.668-.311-1.151-.649-1.452-.338-.3-.686-.451-1.043-.451-.178 0-.296.028-.352.084-.056.057-.084.15-.084.282v8.456c0 .197.032.333.098.409.075.065.202.112.381.14l.634.1c.122.009.183.065.183.168 0 .104-.07.155-.211.155h-3.171Zm5.214 0c-.113 0-.17-.051-.17-.155 0-.094.052-.15.155-.169l.198-.028c.197-.028.324-.085.38-.17.066-.084.099-.225.099-.422v-8.075c0-.169-.028-.282-.085-.338-.047-.066-.136-.108-.267-.127l-.296-.042c-.104-.02-.155-.075-.155-.17 0-.093.051-.15.155-.169a3.77 3.77 0 0 0 .662-.197c.178-.075.329-.15.451-.225.15-.094.263-.141.338-.141.103 0 .155.075.155.225v3.735c0 .084.028.136.085.155.056.01.127-.024.211-.099.357-.329.672-.554.944-.676.273-.122.559-.184.86-.184.442 0 .789.15 1.043.451.253.292.38.724.38 1.297v4.58c0 .197.028.338.085.423.066.075.197.127.394.155l.31.042c.104.019.155.075.155.17 0 .103-.056.154-.169.154h-2.367c-.132 0-.197-.051-.197-.155 0-.094.051-.15.155-.169l.197-.028c.197-.028.324-.085.38-.17.066-.084.099-.225.099-.422v-4.425c0-.46-.085-.784-.254-.972-.169-.188-.408-.282-.718-.282-.301 0-.573.089-.818.267-.235.17-.423.4-.563.691a2.08 2.08 0 0 0-.212.944v3.777c0 .197.028.338.085.423.065.084.197.136.394.155l.381.042c.103.019.155.075.155.17 0 .103-.057.154-.169.154h-2.466Zm8.944.127a1.83 1.83 0 0 1-1.212-.45c-.357-.301-.643-.724-.859-1.27-.207-.553-.31-1.192-.31-1.916 0-.742.108-1.395.324-1.959.216-.563.512-1.005.887-1.324.376-.32.794-.48 1.255-.48.554 0 1 .23 1.338.691.348.451.522 1.189.522 2.213 0 .31-.118.465-.352.465h-2.678c-.188 0-.282.108-.282.324 0 .996.146 1.742.437 2.24.291.498.662.747 1.113.747.357 0 .649-.126.874-.38.226-.254.409-.681.55-1.283.028-.103.089-.154.183-.154.113 0 .155.093.127.281-.151.837-.39 1.424-.719 1.762a1.631 1.631 0 0 1-1.198.493Zm-1.127-4.383h1.423c.451 0 .677-.234.677-.704 0-.611-.076-1.09-.226-1.438-.15-.347-.376-.521-.676-.521-.367 0-.677.211-.93.634-.245.423-.404 1.024-.48 1.804-.018.15.052.225.212.225Zm11.914 4.397a.188.188 0 0 1-.113-.042c-.038-.028-.066-.09-.085-.183l-1.085-4.369c-.009-.075-.037-.108-.084-.099-.047 0-.08.033-.099.099l-1.212 4.369c-.028.094-.061.155-.098.183a.138.138 0 0 1-.099.042.252.252 0 0 1-.127-.042c-.038-.028-.066-.09-.084-.183l-2.227-8.935c-.066-.263-.141-.446-.226-.55-.075-.103-.206-.173-.394-.21l-.212-.043c-.131-.028-.197-.09-.197-.183 0-.094.071-.141.212-.141h2.268c.132 0 .198.051.198.155 0 .084-.071.14-.212.169l-.155.028c-.159.028-.263.084-.31.17-.037.074-.033.215.014.422l1.663 6.877c.019.066.047.099.085.099.047 0 .08-.033.099-.099l.634-2.297a3.58 3.58 0 0 0 .155-.986c0-.301-.047-.635-.141-1.001l-.592-2.41c-.066-.263-.132-.45-.197-.564-.057-.112-.137-.178-.24-.197l-.211-.042c-.132-.028-.198-.09-.198-.183 0-.094.071-.141.212-.141h1.93c.132 0 .198.051.198.155 0 .084-.071.14-.212.169l-.155.028c-.122.019-.197.07-.225.155-.019.085-.005.23.042.437l.479 2.015c.019.066.047.099.085.099.047 0 .08-.033.098-.099l.508-1.72c.103-.356.141-.591.112-.704-.018-.113-.07-.174-.155-.183l-.155-.028c-.14-.028-.211-.085-.211-.17 0-.103.066-.154.197-.154h1.339c.16 0 .24.051.24.155 0 .094-.08.15-.24.169l-.155.014c-.122.01-.225.084-.31.225a4 4 0 0 0-.254.69l-.535 1.847a3.88 3.88 0 0 0-.169.986c0 .301.042.635.127 1.001l.634 2.65c.019.065.047.098.084.098.047 0 .076-.033.085-.098l1.621-6.497c.131-.545.047-.841-.254-.888l-.155-.028c-.141-.028-.212-.09-.212-.183 0-.094.066-.141.198-.141h1.578c.16 0 .24.051.24.155 0 .094-.08.15-.24.169l-.155.014c-.122.01-.23.084-.324.225-.085.132-.164.362-.24.69l-2.184 8.809c-.019.094-.047.155-.084.183a.19.19 0 0 1-.113.042Zm4.93-.014a1.83 1.83 0 0 1-1.212-.45c-.357-.301-.644-.724-.86-1.27-.206-.553-.31-1.192-.31-1.916 0-.742.108-1.395.324-1.959.216-.563.512-1.005.888-1.324.376-.32.794-.48 1.254-.48.555 0 1.001.23 1.339.691.348.451.522 1.189.522 2.213 0 .31-.118.465-.353.465h-2.677c-.188 0-.282.108-.282.324 0 .996.145 1.742.437 2.24.291.498.662.747 1.113.747.357 0 .648-.126.874-.38.225-.254.408-.681.549-1.283.029-.103.09-.154.184-.154.112 0 .155.093.126.281-.15.837-.39 1.424-.718 1.762a1.631 1.631 0 0 1-1.198.493Zm-1.128-4.383h1.424c.451 0 .676-.234.676-.704 0-.611-.075-1.09-.225-1.438-.151-.347-.376-.521-.677-.521-.366 0-.676.211-.93.634-.244.423-.404 1.024-.479 1.804-.019.15.052.225.211.225Zm6.137 4.383a1.83 1.83 0 0 1-1.212-.45c-.357-.301-.643-.724-.859-1.27-.207-.553-.311-1.192-.311-1.916 0-.742.109-1.395.325-1.959.216-.563.512-1.005.887-1.324.376-.32.794-.48 1.255-.48.554 0 1 .23 1.338.691.348.451.522 1.189.522 2.213 0 .31-.118.465-.352.465h-2.678c-.188 0-.282.108-.282.324 0 .996.146 1.742.437 2.24.291.498.662.747 1.113.747.357 0 .649-.126.874-.38.226-.254.409-.681.55-1.283.028-.103.089-.154.183-.154.113 0 .155.093.127.281-.151.837-.39 1.424-.719 1.762a1.631 1.631 0 0 1-1.198.493Zm-1.127-4.383h1.423c.451 0 .676-.234.676-.704 0-.611-.075-1.09-.225-1.438-.15-.347-.376-.521-.676-.521-.367 0-.677.211-.931.634-.244.423-.404 1.024-.479 1.804-.018.15.052.225.212.225Zm3.811 4.256c-.113 0-.169-.051-.169-.155 0-.094.052-.15.155-.169l.197-.028c.198-.028.324-.085.381-.17.066-.084.098-.225.098-.422v-8.075c0-.169-.028-.282-.084-.338-.047-.066-.136-.108-.268-.127l-.296-.042c-.103-.02-.155-.075-.155-.17 0-.093.052-.15.155-.169a3.42 3.42 0 0 0 1.114-.423c.15-.093.263-.14.338-.14.103 0 .155.075.155.225v5.905c0 .094.037.155.113.183.084.019.164-.014.239-.098l1.649-1.776c.197-.216.277-.395.239-.536-.028-.15-.136-.244-.324-.281l-.324-.057c-.122-.028-.183-.089-.183-.183s.066-.14.197-.14h2.424c.132 0 .198.05.198.154s-.062.16-.184.17l-.127.013a1.338 1.338 0 0 0-.648.254c-.216.14-.474.366-.775.676l-.874.93c-.197.217-.244.428-.141.635l1.776 3.41c.103.188.216.324.338.409.122.084.273.145.451.183l.141.028c.113.028.169.085.169.17 0 .103-.065.154-.197.154h-2.452c-.132 0-.197-.051-.197-.155 0-.094.061-.15.183-.169l.239-.028c.357-.047.433-.277.226-.69l-1.339-2.608c-.047-.094-.117-.145-.211-.155-.085-.01-.165.024-.24.099l-.155.155a.67.67 0 0 0-.169.254.893.893 0 0 0-.042.281v2.072c0 .197.028.338.084.423.066.084.198.136.395.155l.38.042c.104.019.155.075.155.17 0 .103-.056.154-.169.154h-2.466Z"/></g><defs><filter id="b" width="25.474" height="31.772" x="9.933" y=".014" color-interpolation-filters="sRGB" filterUnits="userSpaceOnUse"><feFlood flood-opacity="0" result="BackgroundImageFix"/><feColorMatrix in="SourceAlpha" result="hardAlpha" values="0 0 0 0 0 0 0 0 0 0 0 0 0 0 0 0 0 0 127 0"/><feOffset dy="1.11"/><feGaussianBlur stdDeviation=".897"/><feColorMatrix values="0 0 0 0 0.129412 0 0 0 0 0.129412 0 0 0 0 0.129412 0 0 0 0.08 0"/><feBlend in2="BackgroundImageFix" result="effect1_dropShadow_797_1597"/><feBlend in="SourceGraphic" in2="effect1_dropShadow_797_1597" result="shape"/></filter><filter id="d" width="23.06" height="23.915" x="11.138" y="1.071" color-interpolation-filters="sRGB" filterUnits="userSpaceOnUse"><feFlood flood-opacity="0" result="BackgroundImageFix"/><feBlend in="SourceGraphic" in2="BackgroundImageFix" result="shape"/><feColorMatrix in="SourceAlpha" result="hardAlpha" values="0 0 0 0 0 0 0 0 0 0 0 0 0 0 0 0 0 0 127 0"/><feOffset dx=".854" dy="-1.281"/><feGaussianBlur stdDeviation=".854"/><feComposite in2="hardAlpha" k2="-1" k3="1" operator="arithmetic"/><feColorMatrix values="0 0 0 0 1 0 0 0 0 1 0 0 0 0 1 0 0 0 0.55 0"/><feBlend in2="shape" result="effect1_innerShadow_797_1597"/><feColorMatrix in="SourceAlpha" result="hardAlpha" values="0 0 0 0 0 0 0 0 0 0 0 0 0 0 0 0 0 0 127 0"/><feOffset dx="-.854" dy="1.281"/><feGaussianBlur stdDeviation=".854"/><feComposite in2="hardAlpha" k2="-1" k3="1" operator="arithmetic"/><feColorMatrix values="0 0 0 0 1 0 0 0 0 1 0 0 0 0 1 0 0 0 0.55 0"/><feBlend in2="effect1_innerShadow_797_1597" result="effect2_innerShadow_797_1597"/></filter><filter id="f" width="11.202" height="3.364" x="17.141" y="19.434" color-interpolation-filters="sRGB" filterUnits="userSpaceOnUse"><feFlood flood-opacity="0" result="BackgroundImageFix"/><feBlend in="SourceGraphic" in2="BackgroundImageFix" result="shape"/><feColorMatrix in="SourceAlpha" result="hardAlpha" values="0 0 0 0 0 0 0 0 0 0 0 0 0 0 0 0 0 0 127 0"/><feOffset dx=".214" dy=".214"/><feGaussianBlur stdDeviation=".214"/><feComposite in2="hardAlpha" k2="-1" k3="1" operator="arithmetic"/><feColorMatrix values="0 0 0 0 0 0 0 0 0 0 0 0 0 0 0 0 0 0 0.2 0"/><feBlend in2="shape" result="effect1_innerShadow_797_1597"/></filter><filter id="g" width="22.1" height="22.1" x="11.727" y="2.085" color-interpolation-filters="sRGB" filterUnits="userSpaceOnUse"><feFlood flood-opacity="0" result="BackgroundImageFix"/><feBlend in="SourceGraphic" in2="BackgroundImageFix" result="shape"/><feColorMatrix in="SourceAlpha" result="hardAlpha" values="0 0 0 0 0 0 0 0 0 0 0 0 0 0 0 0 0 0 127 0"/><feOffset dx=".214" dy=".214"/><feGaussianBlur stdDeviation=".214"/><feComposite in2="hardAlpha" k2="-1" k3="1" operator="arithmetic"/><feColorMatrix values="0 0 0 0 0 0 0 0 0 0 0 0 0 0 0 0 0 0 0.2 0"/><feBlend in2="shape" result="effect1_innerShadow_797_1597"/></filter><filter id="h" width="14.628" height="14.626" x="15.461" y="5.821" color-interpolation-filters="sRGB" filterUnits="userSpaceOnUse"><feFlood flood-opacity="0" result="BackgroundImageFix"/><feBlend in="SourceGraphic" in2="BackgroundImageFix" result="shape"/><feColorMatrix in="SourceAlpha" result="hardAlpha" values="0 0 0 0 0 0 0 0 0 0 0 0 0 0 0 0 0 0 127 0"/><feOffset dx=".214" dy=".214"/><feGaussianBlur stdDeviation=".214"/><feComposite in2="hardAlpha" k2="-1" k3="1" operator="arithmetic"/><feColorMatrix values="0 0 0 0 0 0 0 0 0 0 0 0 0 0 0 0 0 0 0.2 0"/><feBlend in2="shape" result="effect1_innerShadow_797_1597"/></filter><filter id="i" width="1.897" height="1.896" x="14.379" y="17.079" color-interpolation-filters="sRGB" filterUnits="userSpaceOnUse"><feFlood flood-opacity="0" result="BackgroundImageFix"/><feBlend in="SourceGraphic" in2="BackgroundImageFix" result="shape"/><feColorMatrix in="SourceAlpha" result="hardAlpha" values="0 0 0 0 0 0 0 0 0 0 0 0 0 0 0 0 0 0 127 0"/><feOffset dx=".214" dy=".214"/><feGaussianBlur stdDeviation=".214"/><feComposite in2="hardAlpha" k2="-1" k3="1" operator="arithmetic"/><feColorMatrix values="0 0 0 0 0 0 0 0 0 0 0 0 0 0 0 0 0 0 0.2 0"/><feBlend in2="shape" result="effect1_innerShadow_797_1597"/></filter><filter id="j" width="1.897" height="1.896" x="29.199" y="16.705" color-interpolation-filters="sRGB" filterUnits="userSpaceOnUse"><feFlood flood-opacity="0" result="BackgroundImageFix"/><feBlend in="SourceGraphic" in2="BackgroundImageFix" result="shape"/><feColorMatrix in="SourceAlpha" result="hardAlpha" values="0 0 0 0 0 0 0 0 0 0 0 0 0 0 0 0 0 0 127 0"/><feOffset dx=".214" dy=".214"/><feGaussianBlur stdDeviation=".214"/><feComposite in2="hardAlpha" k2="-1" k3="1" operator="arithmetic"/><feColorMatrix values="0 0 0 0 0 0 0 0 0 0 0 0 0 0 0 0 0 0 0.2 0"/><feBlend in2="shape" result="effect1_innerShadow_797_1597"/></filter><filter id="k" width="10.014" height="6.312" x="17.68" y="9.907" color-interpolation-filters="sRGB" filterUnits="userSpaceOnUse"><feFlood flood-opacity="0" result="BackgroundImageFix"/><feBlend in="SourceGraphic" in2="BackgroundImageFix" result="shape"/><feColorMatrix in="SourceAlpha" result="hardAlpha" values="0 0 0 0 0 0 0 0 0 0 0 0 0 0 0 0 0 0 127 0"/><feOffset dx=".214" dy=".214"/><feGaussianBlur stdDeviation=".214"/><feComposite in2="hardAlpha" k2="-1" k3="1" operator="arithmetic"/><feColorMatrix values="0 0 0 0 0 0 0 0 0 0 0 0 0 0 0 0 0 0 0.2 0"/><feBlend in2="shape" result="effect1_innerShadow_797_1597"/></filter><filter id="l" width="16.392" height="16.157" x="14.474" y="4.988" color-interpolation-filters="sRGB" filterUnits="userSpaceOnUse"><feFlood flood-opacity="0" result="BackgroundImageFix"/><feBlend in="SourceGraphic" in2="BackgroundImageFix" result="shape"/><feGaussianBlur result="effect1_foregroundBlur_797_1597" stdDeviation=".427"/></filter><filter id="m" width="19.971" height="13.005" x="12.879" y="3.242" color-interpolation-filters="sRGB" filterUnits="userSpaceOnUse"><feFlood flood-opacity="0" result="BackgroundImageFix"/><feBlend in="SourceGraphic" in2="BackgroundImageFix" result="shape"/><feColorMatrix in="SourceAlpha" result="hardAlpha" values="0 0 0 0 0 0 0 0 0 0 0 0 0 0 0 0 0 0 127 0"/><feOffset dx=".214" dy=".214"/><feGaussianBlur stdDeviation=".214"/><feComposite in2="hardAlpha" k2="-1" k3="1" operator="arithmetic"/><feColorMatrix values="0 0 0 0 0 0 0 0 0 0 0 0 0 0 0 0 0 0 0.2 0"/><feBlend in2="shape" result="effect1_innerShadow_797_1597"/></filter><filter id="n" width="2.012" height="1.625" x="13.102" y="14.58" color-interpolation-filters="sRGB" filterUnits="userSpaceOnUse"><feFlood flood-opacity="0" result="BackgroundImageFix"/><feBlend in="SourceGraphic" in2="BackgroundImageFix" result="shape"/><feColorMatrix in="SourceAlpha" result="hardAlpha" values="0 0 0 0 0 0 0 0 0 0 0 0 0 0 0 0 0 0 127 0"/><feOffset dy=".171"/><feGaussianBlur stdDeviation=".107"/><feComposite in2="hardAlpha" k2="-1" k3="1" operator="arithmetic"/><feColorMatrix values="0 0 0 0 0 0 0 0 0 0 0 0 0 0 0 0 0 0 0.25 0"/><feBlend in2="shape" result="effect1_innerShadow_797_1597"/></filter><filter id="o" width="1.883" height="1.548" x="12.879" y="12.579" color-interpolation-filters="sRGB" filterUnits="userSpaceOnUse"><feFlood flood-opacity="0" result="BackgroundImageFix"/><feBlend in="SourceGraphic" in2="BackgroundImageFix" result="shape"/><feColorMatrix in="SourceAlpha" result="hardAlpha" values="0 0 0 0 0 0 0 0 0 0 0 0 0 0 0 0 0 0 127 0"/><feOffset dy=".171"/><feGaussianBlur stdDeviation=".107"/><feComposite in2="hardAlpha" k2="-1" k3="1" operator="arithmetic"/><feColorMatrix values="0 0 0 0 0 0 0 0 0 0 0 0 0 0 0 0 0 0 0.25 0"/><feBlend in2="shape" result="effect1_innerShadow_797_1597"/></filter><filter id="p" width="1.949" height="1.782" x="13.043" y="10.441" color-interpolation-filters="sRGB" filterUnits="userSpaceOnUse"><feFlood flood-opacity="0" result="BackgroundImageFix"/><feBlend in="SourceGraphic" in2="BackgroundImageFix" result="shape"/><feColorMatrix in="SourceAlpha" result="hardAlpha" values="0 0 0 0 0 0 0 0 0 0 0 0 0 0 0 0 0 0 127 0"/><feOffset dy=".171"/><feGaussianBlur stdDeviation=".107"/><feComposite in2="hardAlpha" k2="-1" k3="1" operator="arithmetic"/><feColorMatrix values="0 0 0 0 0 0 0 0 0 0 0 0 0 0 0 0 0 0 0.25 0"/><feBlend in2="shape" result="effect1_innerShadow_797_1597"/></filter><filter id="q" width="1.813" height="2.063" x="13.754" y="8.317" color-interpolation-filters="sRGB" filterUnits="userSpaceOnUse"><feFlood flood-opacity="0" result="BackgroundImageFix"/><feBlend in="SourceGraphic" in2="BackgroundImageFix" result="shape"/><feColorMatrix in="SourceAlpha" result="hardAlpha" values="0 0 0 0 0 0 0 0 0 0 0 0 0 0 0 0 0 0 127 0"/><feOffset dy=".171"/><feGaussianBlur stdDeviation=".107"/><feComposite in2="hardAlpha" k2="-1" k3="1" operator="arithmetic"/><feColorMatrix values="0 0 0 0 0 0 0 0 0 0 0 0 0 0 0 0 0 0 0.25 0"/><feBlend in2="shape" result="effect1_innerShadow_797_1597"/></filter><filter id="r" width="2.203" height="2.234" x="14.535" y="6.69" color-interpolation-filters="sRGB" filterUnits="userSpaceOnUse"><feFlood flood-opacity="0" result="BackgroundImageFix"/><feBlend in="SourceGraphic" in2="BackgroundImageFix" result="shape"/><feColorMatrix in="SourceAlpha" result="hardAlpha" values="0 0 0 0 0 0 0 0 0 0 0 0 0 0 0 0 0 0 127 0"/><feOffset dy=".171"/><feGaussianBlur stdDeviation=".107"/><feComposite in2="hardAlpha" k2="-1" k3="1" operator="arithmetic"/><feColorMatrix values="0 0 0 0 0 0 0 0 0 0 0 0 0 0 0 0 0 0 0.25 0"/><feBlend in2="shape" result="effect1_innerShadow_797_1597"/></filter><filter id="s" width="1.832" height="2.05" x="16.016" y="5.406" color-interpolation-filters="sRGB" filterUnits="userSpaceOnUse"><feFlood flood-opacity="0" result="BackgroundImageFix"/><feBlend in="SourceGraphic" in2="BackgroundImageFix" result="shape"/><feColorMatrix in="SourceAlpha" result="hardAlpha" values="0 0 0 0 0 0 0 0 0 0 0 0 0 0 0 0 0 0 127 0"/><feOffset dy=".171"/><feGaussianBlur stdDeviation=".107"/><feComposite in2="hardAlpha" k2="-1" k3="1" operator="arithmetic"/><feColorMatrix values="0 0 0 0 0 0 0 0 0 0 0 0 0 0 0 0 0 0 0.25 0"/><feBlend in2="shape" result="effect1_innerShadow_797_1597"/></filter><filter id="t" width="1.648" height="2.226" x="17.406" y="4.112" color-interpolation-filters="sRGB" filterUnits="userSpaceOnUse"><feFlood flood-opacity="0" result="BackgroundImageFix"/><feBlend in="SourceGraphic" in2="BackgroundImageFix" result="shape"/><feColorMatrix in="SourceAlpha" result="hardAlpha" values="0 0 0 0 0 0 0 0 0 0 0 0 0 0 0 0 0 0 127 0"/><feOffset dy=".171"/><feGaussianBlur stdDeviation=".107"/><feComposite in2="hardAlpha" k2="-1" k3="1" operator="arithmetic"/><feColorMatrix values="0 0 0 0 0 0 0 0 0 0 0 0 0 0 0 0 0 0 0.25 0"/><feBlend in2="shape" result="effect1_innerShadow_797_1597"/></filter><filter id="u" width="1.594" height="2.116" x="20.367" y="3.358" color-interpolation-filters="sRGB" filterUnits="userSpaceOnUse"><feFlood flood-opacity="0" result="BackgroundImageFix"/><feBlend in="SourceGraphic" in2="BackgroundImageFix" result="shape"/><feColorMatrix in="SourceAlpha" result="hardAlpha" values="0 0 0 0 0 0 0 0 0 0 0 0 0 0 0 0 0 0 127 0"/><feOffset dy=".171"/><feGaussianBlur stdDeviation=".107"/><feComposite in2="hardAlpha" k2="-1" k3="1" operator="arithmetic"/><feColorMatrix values="0 0 0 0 0 0 0 0 0 0 0 0 0 0 0 0 0 0 0.25 0"/><feBlend in2="shape" result="effect1_innerShadow_797_1597"/></filter><filter id="v" width="1.227" height="2.05" x="22.52" y="3.242" color-interpolation-filters="sRGB" filterUnits="userSpaceOnUse"><feFlood flood-opacity="0" result="BackgroundImageFix"/><feBlend in="SourceGraphic" in2="BackgroundImageFix" result="shape"/><feColorMatrix in="SourceAlpha" result="hardAlpha" values="0 0 0 0 0 0 0 0 0 0 0 0 0 0 0 0 0 0 127 0"/><feOffset dy=".171"/><feGaussianBlur stdDeviation=".107"/><feComposite in2="hardAlpha" k2="-1" k3="1" operator="arithmetic"/><feColorMatrix values="0 0 0 0 0 0 0 0 0 0 0 0 0 0 0 0 0 0 0.25 0"/><feBlend in2="shape" result="effect1_innerShadow_797_1597"/></filter><filter id="w" width="1.445" height="2.218" x="25.219" y="3.561" color-interpolation-filters="sRGB" filterUnits="userSpaceOnUse"><feFlood flood-opacity="0" result="BackgroundImageFix"/><feBlend in="SourceGraphic" in2="BackgroundImageFix" result="shape"/><feColorMatrix in="SourceAlpha" result="hardAlpha" values="0 0 0 0 0 0 0 0 0 0 0 0 0 0 0 0 0 0 127 0"/><feOffset dy=".171"/><feGaussianBlur stdDeviation=".107"/><feComposite in2="hardAlpha" k2="-1" k3="1" operator="arithmetic"/><feColorMatrix values="0 0 0 0 0 0 0 0 0 0 0 0 0 0 0 0 0 0 0.25 0"/><feBlend in2="shape" result="effect1_innerShadow_797_1597"/></filter><filter id="x" width="2.141" height="2.477" x="26.391" y="4.372" color-interpolation-filters="sRGB" filterUnits="userSpaceOnUse"><feFlood flood-opacity="0" result="BackgroundImageFix"/><feBlend in="SourceGraphic" in2="BackgroundImageFix" result="shape"/><feColorMatrix in="SourceAlpha" result="hardAlpha" values="0 0 0 0 0 0 0 0 0 0 0 0 0 0 0 0 0 0 127 0"/><feOffset dy=".171"/><feGaussianBlur stdDeviation=".107"/><feComposite in2="hardAlpha" k2="-1" k3="1" operator="arithmetic"/><feColorMatrix values="0 0 0 0 0 0 0 0 0 0 0 0 0 0 0 0 0 0 0.25 0"/><feBlend in2="shape" result="effect1_innerShadow_797_1597"/></filter><filter id="y" width="2.145" height="2.333" x="27.93" y="5.656" color-interpolation-filters="sRGB" filterUnits="userSpaceOnUse"><feFlood flood-opacity="0" result="BackgroundImageFix"/><feBlend in="SourceGraphic" in2="BackgroundImageFix" result="shape"/><feColorMatrix in="SourceAlpha" result="hardAlpha" values="0 0 0 0 0 0 0 0 0 0 0 0 0 0 0 0 0 0 127 0"/><feOffset dy=".171"/><feGaussianBlur stdDeviation=".107"/><feComposite in2="hardAlpha" k2="-1" k3="1" operator="arithmetic"/><feColorMatrix values="0 0 0 0 0 0 0 0 0 0 0 0 0 0 0 0 0 0 0.25 0"/><feBlend in2="shape" result="effect1_innerShadow_797_1597"/></filter><filter id="z" width="2.516" height="2.704" x="29.625" y="7.878" color-interpolation-filters="sRGB" filterUnits="userSpaceOnUse"><feFlood flood-opacity="0" result="BackgroundImageFix"/><feBlend in="SourceGraphic" in2="BackgroundImageFix" result="shape"/><feColorMatrix in="SourceAlpha" result="hardAlpha" values="0 0 0 0 0 0 0 0 0 0 0 0 0 0 0 0 0 0 127 0"/><feOffset dy=".171"/><feGaussianBlur stdDeviation=".107"/><feComposite in2="hardAlpha" k2="-1" k3="1" operator="arithmetic"/><feColorMatrix values="0 0 0 0 0 0 0 0 0 0 0 0 0 0 0 0 0 0 0.25 0"/><feBlend in2="shape" result="effect1_innerShadow_797_1597"/></filter><filter id="A" width="2.059" height="1.703" x="30.508" y="10.687" color-interpolation-filters="sRGB" filterUnits="userSpaceOnUse"><feFlood flood-opacity="0" result="BackgroundImageFix"/><feBlend in="SourceGraphic" in2="BackgroundImageFix" result="shape"/><feColorMatrix in="SourceAlpha" result="hardAlpha" values="0 0 0 0 0 0 0 0 0 0 0 0 0 0 0 0 0 0 127 0"/><feOffset dy=".171"/><feGaussianBlur stdDeviation=".107"/><feComposite in2="hardAlpha" k2="-1" k3="1" operator="arithmetic"/><feColorMatrix values="0 0 0 0 0 0 0 0 0 0 0 0 0 0 0 0 0 0 0.25 0"/><feBlend in2="shape" result="effect1_innerShadow_797_1597"/></filter><filter id="B" width="1.879" height="1.367" x="30.758" y="12.633" color-interpolation-filters="sRGB" filterUnits="userSpaceOnUse"><feFlood flood-opacity="0" result="BackgroundImageFix"/><feBlend in="SourceGraphic" in2="BackgroundImageFix" result="shape"/><feColorMatrix in="SourceAlpha" result="hardAlpha" values="0 0 0 0 0 0 0 0 0 0 0 0 0 0 0 0 0 0 127 0"/><feOffset dy=".171"/><feGaussianBlur stdDeviation=".107"/><feComposite in2="hardAlpha" k2="-1" k3="1" operator="arithmetic"/><feColorMatrix values="0 0 0 0 0 0 0 0 0 0 0 0 0 0 0 0 0 0 0.25 0"/><feBlend in2="shape" result="effect1_innerShadow_797_1597"/></filter><filter id="C" width="2.129" height="1.948" x="30.406" y="14.234" color-interpolation-filters="sRGB" filterUnits="userSpaceOnUse"><feFlood flood-opacity="0" result="BackgroundImageFix"/><feBlend in="SourceGraphic" in2="BackgroundImageFix" result="shape"/><feColorMatrix in="SourceAlpha" result="hardAlpha" values="0 0 0 0 0 0 0 0 0 0 0 0 0 0 0 0 0 0 127 0"/><feOffset dy=".171"/><feGaussianBlur stdDeviation=".107"/><feComposite in2="hardAlpha" k2="-1" k3="1" operator="arithmetic"/><feColorMatrix values="0 0 0 0 0 0 0 0 0 0 0 0 0 0 0 0 0 0 0.25 0"/><feBlend in2="shape" result="effect1_innerShadow_797_1597"/></filter><filter id="D" width="2.297" height="2.298" x="14.088" y="4.122" color-interpolation-filters="sRGB" filterUnits="userSpaceOnUse"><feFlood flood-opacity="0" result="BackgroundImageFix"/><feBlend in="SourceGraphic" in2="BackgroundImageFix" result="shape"/><feGaussianBlur result="effect1_foregroundBlur_797_1597" stdDeviation=".103"/></filter><filter id="E" width="2.766" height="2.764" x="28.74" y="19.208" color-interpolation-filters="sRGB" filterUnits="userSpaceOnUse"><feFlood flood-opacity="0" result="BackgroundImageFix"/><feBlend in="SourceGraphic" in2="BackgroundImageFix" result="shape"/><feGaussianBlur result="effect1_foregroundBlur_797_1597" stdDeviation=".103"/></filter><filter id="G" width="93.139" height="13.906" x="52.036" y="16.413" color-interpolation-filters="sRGB" filterUnits="userSpaceOnUse"><feFlood flood-opacity="0" result="BackgroundImageFix"/><feBlend in="SourceGraphic" in2="BackgroundImageFix" result="shape"/><feGaussianBlur result="effect1_foregroundBlur_797_1597" stdDeviation=".084"/></filter><linearGradient id="e" x1="11.992" x2="15.059" y1="3.155" y2="29.668" gradientUnits="userSpaceOnUse"><stop stop-color="#FEDE6D"/><stop offset="0" stop-color="#B9BEC1"/><stop offset=".33" stop-color="#E9EAEC"/><stop offset=".642" stop-color="#E4E5E7"/><stop offset=".846" stop-color="#fff"/></linearGradient></defs></svg>