<svg viewBox="0 0 11269 793" fill="none" xmlns="http://www.w3.org/2000/svg">
<mask id="mask0_3_76" style="mask-type:luminance" maskUnits="userSpaceOnUse" x="0" y="0" width="800" height="793">
<path d="M799.95 0H0V792.81H799.95V0Z" fill="white"/>
</mask>
<g mask="url(#mask0_3_76)">
<path d="M306.817 288.582V213.264C306.817 206.921 309.198 202.162 314.744 198.995L466.176 111.786C486.788 99.894 511.367 94.3472 536.733 94.3472C631.868 94.3472 692.127 168.08 692.127 246.565C692.127 252.113 692.127 258.457 691.332 264.8L534.354 172.832C524.841 167.285 515.324 167.285 505.812 172.832L306.817 288.582ZM660.41 581.924V401.952C660.41 390.85 655.65 382.922 646.139 377.374L447.144 261.624L512.155 224.36C517.703 221.192 522.462 221.192 528.01 224.36L679.44 311.569C723.048 336.942 752.378 390.85 752.378 443.172C752.378 503.424 716.705 558.923 660.41 581.917V581.924ZM260.041 423.363L195.031 385.31C189.484 382.142 187.103 377.382 187.103 371.039V196.622C187.103 111.794 252.113 47.5718 340.117 47.5718C373.42 47.5718 404.333 58.6737 430.502 78.4932L274.319 168.876C264.808 174.423 260.05 182.351 260.05 193.455V423.369L260.041 423.363ZM399.974 504.227L306.817 451.903V340.914L399.974 288.59L493.125 340.914V451.903L399.974 504.227ZM459.831 745.245C426.53 745.245 395.617 734.143 369.448 714.325L525.629 623.94C535.142 618.394 539.9 610.466 539.9 599.362V369.448L605.707 407.5C611.254 410.668 613.635 415.427 613.635 421.771V596.188C613.635 681.016 547.828 745.238 459.831 745.238V745.245ZM271.933 568.449L120.502 481.242C76.8938 455.867 47.5635 401.96 47.5635 349.636C47.5635 288.59 84.0334 233.887 140.32 210.893V391.653C140.32 402.755 145.08 410.683 154.591 416.231L352.797 531.184L287.787 568.449C282.24 571.617 277.48 571.617 271.933 568.449ZM263.217 698.47C173.629 698.47 107.823 631.08 107.823 547.835C107.823 541.492 108.618 535.148 109.406 528.805L265.59 619.188C275.101 624.737 284.619 624.737 294.13 619.188L493.125 504.235V579.553C493.125 585.896 490.746 590.655 485.197 593.822L333.768 681.031C313.153 692.923 288.575 698.47 263.209 698.47H263.217ZM459.831 792.81C555.763 792.81 635.832 724.631 654.074 634.248C742.867 611.254 799.95 528.009 799.95 443.181C799.95 387.681 776.168 333.774 733.355 294.925C737.319 278.275 739.698 261.624 739.698 244.982C739.698 131.612 647.73 46.7754 541.492 46.7754C520.091 46.7754 499.477 49.9429 478.862 57.0825C443.181 22.1972 394.026 0 340.117 0C244.187 0 164.118 68.1778 145.876 158.561C57.0825 181.555 0 264.8 0 349.628C0 405.128 23.7818 459.034 66.5949 497.884C62.631 514.534 60.2517 531.184 60.2517 547.828C60.2517 661.198 152.219 746.033 258.457 746.033C279.859 746.033 300.473 742.866 321.088 735.726C356.761 770.612 405.916 792.81 459.831 792.81Z" fill="#34A076"/>
</g>
<path d="M2190.08 82H2053.52L2302.43 711H2439L2190.08 82ZM1794.92 82L1546 711H1685.47L1736.8 579.394H1997.34L2047.71 711H2187.18L1938.26 82H1794.92ZM1781.36 462.303L1866.59 241.669L1951.82 462.303H1781.36Z" fill="#34A076"/>
<path d="M3410.05 78H3610.01L3402.72 693.367C3398.47 706.501 3386.12 715 3372.61 715H3216.65C3198.9 715 3185 700.707 3185 683.324C3185 679.847 3185.39 676.371 3186.54 673.28L3379.94 99.6325C3384.19 86.8848 3396.54 78 3410.05 78Z" fill="#34A076"/>
<path d="M3700.72 490.563H3383.8C3375.69 490.563 3369.13 497.13 3369.13 505.242C3369.13 509.491 3370.68 513.354 3373.76 516.058L3577.58 706.115C3583.37 711.524 3591.48 714.614 3599.59 714.614H3779.09L3700.72 490.563Z" fill="#34A076"/>
<path d="M3410.05 78C3396.15 78 3383.8 86.8848 3379.94 100.019L3186.93 672.121C3181.14 688.732 3189.63 706.888 3206.23 712.682C3209.71 713.841 3213.18 714.614 3217.04 714.614H3376.47C3388.43 712.296 3398.47 703.797 3402.72 692.209L3441.32 578.638L3578.74 707.66C3584.53 712.296 3591.87 715 3599.2 715H3777.93L3699.57 490.563H3471.04L3610.78 78H3410.05Z" fill="#34A076"/>
<path d="M3665.6 99.6325C3661.35 86.4985 3649 78 3635.49 78H3412.75C3426.26 78 3438.62 86.8848 3442.86 99.6325L3635.87 672.894C3641.66 689.505 3632.4 707.66 3615.8 713.069C3612.71 714.227 3609.24 714.614 3605.76 714.614H3828.5C3846.25 714.614 3860.15 700.321 3860.15 682.938C3860.15 679.461 3859.77 675.984 3858.61 672.894L3665.6 99.6325Z" fill="#34A076"/>
<path fill-rule="evenodd" clip-rule="evenodd" d="M6340.35 465.544C6359.39 465.544 6397.47 464.592 6450.78 442.696C6512.67 416.992 6634.53 371.296 6723.07 323.696C6784.95 290.376 6811.61 246.584 6811.61 187.56C6811.61 106.64 6745.92 40 6664.04 40H6321.31C6204.2 40 6109 135.2 6109 252.296C6109 369.392 6198.49 465.544 6340.35 465.544Z" fill="#34A076"/>
<path fill-rule="evenodd" clip-rule="evenodd" d="M6398.42 611.2C6398.42 554.08 6432.69 501.72 6486.01 479.824L6593.59 435.08C6703.07 390.336 6823.03 470.304 6823.03 588.352C6823.03 679.744 6748.77 754 6657.38 754H6540.28C6462.21 754 6398.42 690.216 6398.42 611.2Z" fill="#34A076"/>
<path d="M6231.81 493.152C6164.22 493.152 6109 548.368 6109 615.96V632.144C6109 698.784 6164.22 754 6231.81 754C6299.41 754 6354.63 698.784 6354.63 631.192V615.008C6353.67 548.368 6299.41 493.152 6231.81 493.152Z" fill="#34A076"/>
<path d="M9278.19 60H9142.09V194.782H9278.19V60Z" fill="#34A076"/>
<path d="M9822.64 60H9686.54V194.782H9822.64V60Z" fill="#34A076"/>
<path d="M9414.28 194.767H9142.09V329.549H9414.28V194.767Z" fill="#34A076"/>
<path d="M9822.65 194.767H9550.45V329.549H9822.65V194.767Z" fill="#34A076"/>
<path d="M9822.65 329.542H9142.09V464.316H9822.65V329.542Z" fill="#34A076"/>
<path d="M9278.19 464.354H9142.09V599.136H9278.19V464.354Z" fill="#34A076"/>
<path d="M9550.42 464.354H9414.32V599.136H9550.42V464.354Z" fill="#34A076"/>
<path d="M9822.64 464.354H9686.54V599.136H9822.64V464.354Z" fill="#34A076"/>
<path d="M9414.37 599.218H9006V734H9414.37V599.218Z" fill="#34A076"/>
<path d="M9958.82 599.218H9550.45V734H9958.82V599.218Z" fill="#34A076"/>
<path fill-rule="evenodd" clip-rule="evenodd" d="M5004.31 523.14H5115.33C5123.04 523.14 5129.35 529.52 5129.35 537.342V602.946C5142.72 606.243 5154.6 613.939 5163.07 624.797C5171.54 635.655 5176.12 649.046 5176.07 662.818C5176.07 696.809 5148.85 724.384 5115.33 724.384C5081.77 724.384 5054.56 696.809 5054.56 662.818C5054.56 633.729 5074.52 609.326 5101.31 602.91V551.544H5004.34V719.626C5004.35 722.068 5003.73 724.471 5002.55 726.604C5001.36 728.738 4999.65 730.531 4997.57 731.81L4900.6 790.961C4898.4 792.307 4895.87 793.013 4893.29 793C4890.72 792.987 4888.19 792.256 4886 790.889L4708.44 679.651C4706.39 678.365 4704.71 676.579 4703.54 674.46C4702.37 672.341 4701.77 669.959 4701.77 667.54V551.508L4613.07 499.963C4611.05 498.793 4609.35 497.146 4608.12 495.167C4606.88 493.187 4606.16 490.935 4606 488.608V487.635V303.008C4606 297.962 4608.63 293.276 4612.92 290.752L4701.77 238.053V124.293C4701.77 119.643 4704.01 115.317 4707.72 112.686L4708.48 112.181L4886.08 2.09707C4888.28 0.726477 4890.82 0 4893.41 0C4896.01 0 4898.55 0.726477 4900.75 2.09707L4997.71 62.4739C4999.76 63.76 5001.45 65.5468 5002.61 67.6659C5003.78 69.7849 5004.39 72.1663 5004.38 74.5853V237.909H5143.37V168.809C5129.99 165.51 5118.11 157.809 5109.64 146.944C5101.17 136.078 5096.6 122.679 5096.66 108.901C5096.66 74.9098 5123.87 47.3347 5157.39 47.3347C5190.95 47.3347 5218.13 74.9098 5218.13 108.901C5218.13 137.99 5198.2 162.393 5171.42 168.809V252.111C5171.43 253.965 5171.08 255.804 5170.38 257.521C5169.68 259.239 5168.65 260.802 5167.35 262.122C5166.05 263.441 5164.5 264.49 5162.79 265.21C5161.08 265.929 5159.25 266.304 5157.39 266.313H5004.38V331.412H5243.15C5246.21 318.01 5253.72 306.039 5264.46 297.446C5275.19 288.854 5288.51 284.144 5302.26 284.084C5335.79 284.084 5363 311.623 5363 345.614C5363 379.606 5335.82 407.181 5302.26 407.181C5288.51 407.118 5275.18 402.404 5264.45 393.804C5253.71 385.204 5246.21 373.225 5243.15 359.816H5004.31V429.637H5182.84L5215.82 472.171C5225.01 466.8 5235.46 463.976 5246.1 463.989C5279.66 463.989 5306.84 491.528 5306.84 525.519C5306.84 559.511 5279.66 587.086 5246.1 587.086C5212.58 587.086 5185.37 559.511 5185.37 525.519C5185.37 513.047 5189.04 501.441 5195.31 491.744L5169.22 458.041H5004.31V523.14ZM4893.39 30.8617L4819.75 76.4958V183.48H4791.71V93.8699L4729.82 132.259V238.414L4805.87 287.436L4883.99 238.27V156.229H4912.03V246.2C4912.03 251.102 4909.51 255.68 4905.4 258.275L4820.94 311.371V386.382L4872.2 422.752L4856.12 446.038L4805.44 410.064L4750.29 446.29L4735.04 422.5L4792.9 384.472V312.74L4715.51 262.781L4634.04 311.082V371.495L4705.13 328.637L4719.47 353.04L4634.04 404.549V479.417L4712.12 524.762L4793.94 475.452L4808.25 499.855L4729.82 547.111V659.646L4797.44 702L4882.69 650.599L4897.03 675.038L4824.33 718.869L4893.47 762.161L4976.3 711.588V503.243L4804.79 607.524L4790.37 583.193L4976.3 470.153V82.5154L4893.39 30.8617ZM5115.33 629.728C5111 629.752 5106.72 630.629 5102.73 632.309C5098.74 633.989 5095.12 636.439 5092.08 639.52C5089.04 642.6 5086.64 646.25 5085.01 650.26C5083.39 654.27 5082.57 658.562 5082.6 662.89C5082.6 681.165 5097.23 695.98 5115.33 695.98C5119.65 695.952 5123.92 695.073 5127.91 693.393C5131.89 691.713 5135.5 689.265 5138.54 686.188C5141.57 683.112 5143.97 679.468 5145.6 675.465C5147.23 671.461 5148.05 667.176 5148.02 662.854C5148.06 658.529 5147.24 654.24 5145.61 650.232C5143.99 646.225 5141.59 642.576 5138.55 639.496C5135.51 636.417 5131.9 633.965 5127.91 632.283C5123.93 630.601 5119.65 629.756 5115.33 629.728ZM5246.18 492.393C5241.85 492.417 5237.57 493.294 5233.58 494.974C5229.59 496.654 5225.97 499.105 5222.93 502.185C5219.89 505.265 5217.49 508.915 5215.86 512.925C5214.23 516.936 5213.41 521.228 5213.45 525.555C5213.45 543.867 5228.08 558.718 5246.14 558.718C5250.47 558.694 5254.75 557.817 5258.74 556.137C5262.72 554.457 5266.34 552.006 5269.38 548.926C5272.42 545.845 5274.83 542.196 5276.45 538.185C5278.08 534.175 5278.9 529.883 5278.87 525.555C5278.9 521.228 5278.08 516.936 5276.45 512.925C5274.83 508.915 5272.42 505.265 5269.38 502.185C5266.34 499.105 5262.72 496.654 5258.74 494.974C5254.75 493.294 5250.5 492.417 5246.18 492.393ZM5302.23 312.524C5297.9 312.548 5293.62 313.425 5289.63 315.105C5285.64 316.785 5282.02 319.236 5278.98 322.316C5275.94 325.396 5273.54 329.046 5271.91 333.056C5270.28 337.067 5269.46 341.359 5269.5 345.686C5269.5 363.962 5284.17 378.777 5302.23 378.777C5306.55 378.748 5310.82 377.869 5314.8 376.189C5318.79 374.509 5322.4 372.061 5325.43 368.985C5328.47 365.909 5330.87 362.265 5332.5 358.261C5334.13 354.257 5334.95 349.972 5334.92 345.65C5334.95 341.326 5334.13 337.037 5332.51 333.029C5330.88 329.021 5328.48 325.373 5325.45 322.293C5322.41 319.213 5318.8 316.762 5314.81 315.079C5310.83 313.397 5306.55 312.516 5302.23 312.488V312.524ZM5157.36 75.7028C5153.03 75.7311 5148.76 76.6115 5144.77 78.2939C5140.79 79.9762 5137.17 82.4274 5134.14 85.5073C5131.1 88.5872 5128.7 92.2354 5127.08 96.2433C5125.45 100.251 5124.63 104.54 5124.66 108.865C5124.66 127.176 5139.3 142.027 5157.36 142.027C5161.69 142.004 5165.97 141.127 5169.96 139.446C5173.94 137.766 5177.56 135.316 5180.6 132.235C5183.64 129.155 5186.04 125.505 5187.67 121.495C5189.3 117.485 5190.12 113.193 5190.09 108.865C5190.12 104.537 5189.3 100.245 5187.67 96.235C5186.04 92.2248 5183.64 88.575 5180.6 85.4946C5177.56 82.4143 5173.94 79.9638 5169.96 78.2836C5165.97 76.6033 5161.69 75.7263 5157.36 75.7028Z" fill="#34A076"/>
<path fill-rule="evenodd" clip-rule="evenodd" d="M10851.1 34.9934C10858.3 37.8137 10864.8 42.459 10870.7 48.5975C10880.4 58.7508 10888.7 73.2839 10895 90.5048C10901.3 107.825 10905.5 127.004 10907 146.248C10927.9 134.43 10951.1 127.233 10975 125.145L10976.7 125.013C11005.6 122.69 11034.1 127.899 11059 140.74C11062.3 142.499 11065.6 144.39 11068.8 146.381C11070.5 127.501 11074.5 108.754 11080.8 91.832C11087.1 74.578 11095.3 60.078 11105.1 49.8915C11110.5 43.9941 11117.2 39.3522 11124.6 36.2874C11133.1 32.9693 11142.2 32.3721 11151 34.8938C11164.3 38.6764 11175.7 47.1043 11184.7 59.348C11193 70.5299 11199.1 84.864 11203.4 102.052C11211 133.042 11212.3 173.822 11207.2 222.996L11208.9 224.323L11209.8 224.953C11234.9 244.065 11252.4 271.307 11261.6 302.928C11276.1 352.268 11268.8 407.613 11243.9 438.571L11243.3 439.268L11243.4 439.367C11257.2 464.651 11265.6 491.361 11267.4 519.001L11267.5 519.996C11269.6 555.334 11260.8 590.904 11240.5 625.843L11240.2 626.175L11240.6 626.971C11256.2 665.361 11261.1 704.017 11255.1 742.639L11254.9 743.933C11254 749.575 11250.8 754.615 11246.2 757.949C11241.5 761.283 11235.8 762.639 11230.1 761.718C11227.3 761.282 11224.6 760.298 11222.2 758.824C11219.8 757.35 11217.7 755.413 11216.1 753.126C11214.4 750.839 11213.2 748.246 11212.5 745.496C11211.9 742.745 11211.8 739.892 11212.2 737.098C11217.8 702.822 11212.5 668.447 11196.3 633.475C11194.8 630.226 11194.1 626.647 11194.3 623.068C11194.6 619.49 11195.7 616.028 11197.6 613.002L11197.7 612.803C11217.8 582.144 11226.1 552.082 11224.3 522.551C11222.8 496.704 11213.5 471.32 11197.7 447.132C11194.7 442.429 11193.6 436.709 11194.7 431.208C11195.8 425.707 11199.1 420.867 11203.7 417.733L11204 417.534C11212.1 412.259 11219.5 398.787 11223.3 380.372C11227.4 358.596 11226.3 336.151 11220.1 314.873C11213.3 291.646 11200.9 272.269 11183.4 259.03C11163.7 243.966 11137.6 236.699 11104.5 238.79C11100.2 239.071 11095.8 238.048 11092.1 235.854C11088.4 233.659 11085.4 230.394 11083.5 226.479C11073.1 204.414 11057.9 188.62 11039 178.832C11020.8 169.754 11000.4 165.938 10980.2 167.816C10938.9 171.101 10902.4 194.394 10891.6 223.759C10890.1 227.892 10887.3 231.457 10883.7 233.977C10880.1 236.497 10875.8 237.852 10871.4 237.86C10836 237.927 10808.5 246.222 10788.5 261.187C10771.2 274.127 10759.4 292.211 10753.1 313.878C10747.5 334.272 10746.7 355.708 10750.9 376.456C10754.6 394.971 10761.9 410.301 10770.2 418.563L10770.5 418.795C10777.5 425.664 10779 436.381 10774.1 444.842C10762.1 465.48 10753.2 496.239 10751.8 525.803C10750.1 559.581 10757.9 588.913 10775.6 609.949L10776.1 610.58C10778.8 613.69 10780.5 617.503 10781.1 621.564C10781.6 625.624 10781 629.759 10779.3 633.475C10760.2 674.486 10754.3 708.198 10760.6 734.742C10761.8 740.262 10760.7 746.008 10757.7 750.759C10754.7 755.509 10749.9 758.887 10744.4 760.176C10738.9 761.464 10733.1 760.561 10728.3 757.657C10723.5 754.754 10720 750.08 10718.5 744.63C10710.5 710.852 10716 672.163 10734.2 628.564L10734.7 627.403L10734.4 627.004C10725.4 613.732 10718.7 599.052 10714.6 583.571L10714.4 582.94C10709.4 563.625 10707.4 543.641 10708.6 523.713C10710 493.518 10717.8 462.594 10729.2 437.775L10729.6 436.912L10729.5 436.845C10719.8 422.976 10712.6 405.224 10708.6 385.581L10708.5 384.785C10703 357.386 10704 329.078 10711.5 302.165C10720.2 271.804 10737.3 245.724 10762.5 226.878C10764.5 225.385 10766.6 223.891 10768.7 222.498C10763.4 172.959 10764.7 131.914 10772.4 100.724C10776.6 83.5368 10782.8 69.2027 10791 58.0208C10800 45.8103 10811.4 37.3824 10824.7 33.5666C10833.5 31.0448 10842.6 31.6089 10851.1 34.9602V34.9934ZM10987.7 336.606C11018.8 336.606 11047.4 346.992 11068.9 364.976C11089.8 382.462 11102.2 405.954 11102.2 429.347C11102.2 458.811 11088.7 481.772 11064.6 496.438C11044 508.881 11016.5 514.92 10984.9 514.92C10951.4 514.92 10922.8 506.326 10902.2 490.565C10881.7 474.97 10870.2 453.071 10870.2 429.347C10870.2 405.888 10883.4 382.33 10905.3 364.777C10927.4 346.959 10956.7 336.606 10987.7 336.606ZM10987.7 366.336C10964.7 366.135 10942.3 373.738 10924.1 387.904C10908.8 400.181 10900.2 415.61 10900.2 429.38C10900.2 443.581 10907.2 456.887 10920.4 467.007C10935.5 478.521 10957.7 485.19 10984.9 485.19C11011.4 485.19 11033.8 480.312 11049 471.055C11064.3 461.764 11072.2 448.293 11072.2 429.347C11072.2 415.311 11064 399.816 11049.5 387.672C11033.5 374.233 11011.7 366.336 10987.7 366.336ZM11009.7 406.485L11009.8 406.618C11013.8 411.628 11013 418.895 11007.9 422.876L10998.3 430.508V445.307C10998.2 448.601 10996.9 451.754 10994.6 454.074C10992.2 456.394 10989.1 457.692 10985.8 457.683C10982.5 457.692 10979.3 456.394 10977 454.074C10974.6 451.754 10973.3 448.601 10973.3 445.307V430.043L10964.3 422.81C10963.1 421.86 10962.1 420.684 10961.4 419.35C10960.7 418.016 10960.2 416.552 10960.1 415.04C10959.9 413.529 10960 412 10960.5 410.543C10960.9 409.086 10961.6 407.73 10962.6 406.551C10964.5 404.167 10967.4 402.652 10970.4 402.335C10973.5 402.019 10976.6 402.926 10979 404.859L10986.1 410.566L10993.4 404.793C10995.8 402.9 10998.8 402.018 11001.9 402.334C11004.9 402.65 11007.7 404.139 11009.7 406.485ZM10842.5 342.811C10858.3 342.811 10871.2 355.752 10871.2 371.712C10871.2 379.362 10868.2 386.703 10862.8 392.122C10857.4 397.541 10850.1 400.595 10842.4 400.612C10834.8 400.586 10827.5 397.533 10822.1 392.122C10816.7 386.711 10813.7 379.384 10813.7 371.745C10813.6 364.095 10816.7 356.75 10822.1 351.325C10827.4 345.9 10834.8 342.838 10842.5 342.811ZM11131.3 342.811C11147.2 342.811 11160.1 355.752 11160.1 371.712C11160.1 379.362 11157.1 386.703 11151.7 392.122C11146.3 397.541 11138.9 400.595 11131.3 400.612C11123.7 400.586 11116.3 397.533 11110.9 392.122C11105.6 386.711 11102.5 379.384 11102.5 371.745C11102.5 364.095 11105.5 356.75 11110.9 351.325C11116.3 345.9 11123.6 342.838 11131.3 342.811ZM10835.7 75.1421L10835.6 75.2084C10831.8 76.88 10828.5 79.6211 10826.2 83.1054L10826 83.3045C10821.4 89.5757 10817.4 98.7999 10814.5 110.911C10808.8 133.872 10807.3 165.029 10810.3 203.22C10824.6 198.973 10840.2 196.318 10856.9 195.356L10857.3 195.323L10857.9 194.195C10859.4 191.474 10861 188.853 10862.8 186.264C10866.9 160.682 10863.5 130.123 10854.4 105.171C10850 93.0929 10844.5 83.6032 10839.4 78.1947C10838.3 77.0702 10837.1 76.0686 10835.8 75.2084L10835.7 75.1421ZM11140.1 76.4693L11140 76.5025C11138.7 77.3626 11137.5 78.3643 11136.5 79.4887C11131.3 84.8972 11125.9 94.4201 11121.4 106.498C11111.8 132.843 11108.6 165.427 11113.8 191.839L11115.7 195.057L11116 195.522H11117C11133.5 195.526 11149.8 197.895 11165.6 202.556C11168.5 165.261 11166.9 134.768 11161.4 112.238C11158.4 100.127 11154.4 90.9029 11149.8 84.6318L11149.7 84.4327C11147.3 80.9361 11144.1 78.183 11140.2 76.5025H11140.1V76.4693Z" fill="#34A076"/>
<path d="M8254.67 478.612C8249.61 472.529 8242.51 468.488 8234.69 467.238C8226.87 465.987 8218.87 467.611 8212.16 471.809L7914.54 690.345V699.699C7918.83 699.19 7923.19 699.597 7927.31 700.892C7931.44 702.188 7935.24 704.342 7938.47 707.215C7941.71 710.087 7944.29 713.611 7946.07 717.555C7947.84 721.5 7948.75 725.774 7948.75 730.098C7948.75 734.422 7947.84 738.697 7946.07 742.642C7944.29 746.586 7941.71 750.11 7938.47 752.982C7935.24 755.854 7931.44 758.009 7927.31 759.304C7923.19 760.6 7918.83 761.007 7914.54 760.498C7921.44 760.529 7928.17 758.288 7933.67 754.12L8248.72 521.554C8254.86 516.407 8258.87 509.164 8259.97 501.229C8261.07 493.295 8259.18 485.234 8254.67 478.612Z" fill="#34A076"/>
<path d="M7914.54 760.498C7907.1 759.616 7900.24 756.034 7895.26 750.431C7890.28 744.828 7887.53 737.594 7887.53 730.098C7887.53 722.603 7890.28 715.368 7895.26 709.765C7900.24 704.162 7907.1 700.581 7914.54 699.699V690.345L7616.92 471.809C7610.24 467.52 7602.21 465.843 7594.37 467.097C7586.52 468.352 7579.42 472.451 7574.41 478.612C7569.92 485.236 7568.13 493.319 7569.4 501.216C7570.66 509.114 7574.88 516.234 7581.21 521.129L7896.26 753.695C7901.63 757.803 7908.2 760.042 7914.96 760.073L7914.54 760.498Z" fill="#34A076"/>
<path d="M7914.54 667.811C7902.18 667.811 7890.09 671.477 7879.82 678.344C7869.54 685.212 7861.53 694.973 7856.8 706.393C7852.07 717.814 7850.83 730.38 7853.24 742.504C7855.65 754.628 7861.61 765.764 7870.35 774.505C7879.09 783.245 7890.22 789.198 7902.35 791.61C7914.47 794.021 7927.04 792.783 7938.46 788.053C7949.88 783.322 7959.64 775.312 7966.51 765.034C7973.37 754.756 7977.04 742.672 7977.04 730.311C7977.04 713.735 7970.45 697.838 7958.73 686.117C7947.01 674.396 7931.12 667.811 7914.54 667.811ZM7914.54 760.498C7908.47 760.497 7902.53 758.69 7897.49 755.308C7892.45 751.925 7888.52 747.118 7886.22 741.5C7883.92 735.882 7883.33 729.705 7884.55 723.755C7885.77 717.806 7888.72 712.353 7893.05 708.089C7897.37 703.825 7902.87 700.944 7908.83 699.811C7914.8 698.678 7920.97 699.345 7926.55 701.728C7932.14 704.11 7936.89 708.1 7940.2 713.189C7943.51 718.279 7945.24 724.239 7945.15 730.311C7945.15 734.311 7944.36 738.272 7942.81 741.962C7941.27 745.652 7939.01 748.999 7936.16 751.808C7933.31 754.617 7929.93 756.831 7926.22 758.323C7922.51 759.815 7918.54 760.554 7914.54 760.498Z" fill="#34A076"/>
<path d="M7659.44 147.832C7651.02 147.722 7642.97 144.327 7637.01 138.371C7631.06 132.414 7627.66 124.367 7627.55 115.945V36.0131C7627.03 31.4875 7627.47 26.9026 7628.85 22.5595C7630.22 18.2163 7632.5 14.213 7635.53 10.8122C7638.56 7.41147 7642.28 4.6901 7646.44 2.8267C7650.59 0.963305 7655.1 0 7659.65 0C7664.21 0 7668.71 0.963305 7672.87 2.8267C7677.03 4.6901 7680.74 7.41147 7683.77 10.8122C7686.81 14.213 7689.08 18.2163 7690.46 22.5595C7691.83 26.9026 7692.27 31.4875 7691.75 36.0131V115.945C7691.64 124.441 7688.19 132.551 7682.14 138.519C7676.09 144.487 7667.94 147.833 7659.44 147.832Z" fill="#34A076"/>
<path d="M7658.59 430.568C7676.44 430.568 7690.9 416.101 7690.9 398.256C7690.9 380.41 7676.44 365.943 7658.59 365.943C7640.74 365.943 7626.28 380.41 7626.28 398.256C7626.28 416.101 7640.74 430.568 7658.59 430.568Z" fill="#34A076"/>
<path d="M7658.59 336.606C7676.44 336.606 7690.9 322.139 7690.9 304.293C7690.9 286.448 7676.44 271.981 7658.59 271.981C7640.74 271.981 7626.28 286.448 7626.28 304.293C7626.28 322.139 7640.74 336.606 7658.59 336.606Z" fill="#34A076"/>
<path d="M7658.59 242.219C7676.44 242.219 7690.9 227.752 7690.9 209.907C7690.9 192.061 7676.44 177.594 7658.59 177.594C7640.74 177.594 7626.28 192.061 7626.28 209.907C7626.28 227.752 7640.74 242.219 7658.59 242.219Z" fill="#34A076"/>
<path d="M8169.64 241.369C8161.14 241.257 8153.03 237.803 8147.07 231.756C8141.1 225.708 8137.75 217.553 8137.75 209.056V129.125C8137.75 120.668 8141.11 112.557 8147.09 106.577C8153.07 100.597 8161.18 97.2372 8169.64 97.2372C8178.1 97.2372 8186.21 100.597 8192.19 106.577C8198.17 112.557 8201.53 120.668 8201.53 129.125V209.056C8201.58 213.279 8200.8 217.472 8199.22 221.39C8197.65 225.308 8195.31 228.873 8192.34 231.879C8189.37 234.886 8185.84 237.272 8181.94 238.901C8178.04 240.531 8173.86 241.369 8169.64 241.369Z" fill="#34A076"/>
<path d="M8170.49 430.994C8188.34 430.994 8202.8 416.527 8202.8 398.681C8202.8 380.835 8188.34 366.368 8170.49 366.368C8152.64 366.368 8138.18 380.835 8138.18 398.681C8138.18 416.527 8152.64 430.994 8170.49 430.994Z" fill="#34A076"/>
<path d="M8170.49 335.331C8188.34 335.331 8202.8 320.864 8202.8 303.018C8202.8 285.172 8188.34 270.705 8170.49 270.705C8152.64 270.705 8138.18 285.172 8138.18 303.018C8138.18 320.864 8152.64 335.331 8170.49 335.331Z" fill="#34A076"/>
<path d="M8170.49 68.3261C8188.34 68.3261 8202.8 53.8592 8202.8 36.0134C8202.8 18.1676 8188.34 3.70068 8170.49 3.70068C8152.64 3.70068 8138.18 18.1676 8138.18 36.0134C8138.18 53.8592 8152.64 68.3261 8170.49 68.3261Z" fill="#34A076"/>
<path d="M7914.54 525.806C7906.12 525.695 7898.07 522.301 7892.11 516.344C7886.16 510.388 7882.76 502.341 7882.65 493.918V412.711C7883.56 404.834 7887.33 397.566 7893.25 392.29C7899.17 387.014 7906.82 384.099 7914.75 384.099C7922.68 384.099 7930.33 387.014 7936.25 392.29C7942.17 397.566 7945.95 404.834 7946.85 412.711V493.068C7946.91 497.347 7946.12 501.594 7944.52 505.564C7942.92 509.533 7940.55 513.146 7937.54 516.192C7934.53 519.237 7930.95 521.656 7927.01 523.306C7923.06 524.956 7918.82 525.806 7914.54 525.806Z" fill="#34A076"/>
<path d="M7914.54 619.767C7932.39 619.767 7946.85 605.301 7946.85 587.455C7946.85 569.609 7932.39 555.142 7914.54 555.142C7896.69 555.142 7882.23 569.609 7882.23 587.455C7882.23 605.301 7896.69 619.767 7914.54 619.767Z" fill="#34A076"/>
<path d="M7914.54 351.487C7932.39 351.487 7946.85 337.02 7946.85 319.175C7946.85 301.329 7932.39 286.862 7914.54 286.862C7896.69 286.862 7882.23 301.329 7882.23 319.175C7882.23 337.02 7896.69 351.487 7914.54 351.487Z" fill="#34A076"/>
<path d="M7914.54 257.1C7932.39 257.1 7946.85 242.633 7946.85 224.787C7946.85 206.942 7932.39 192.475 7914.54 192.475C7896.69 192.475 7882.23 206.942 7882.23 224.787C7882.23 242.633 7896.69 257.1 7914.54 257.1Z" fill="#34A076"/>
<path d="M8042.09 336.181C8033.67 336.071 8025.62 332.676 8019.66 326.72C8013.71 320.763 8010.31 312.716 8010.2 304.294V224.362C8009.68 219.836 8010.12 215.252 8011.5 210.908C8012.87 206.565 8015.15 202.562 8018.18 199.161C8021.21 195.76 8024.93 193.039 8029.09 191.176C8033.24 189.312 8037.75 188.349 8042.3 188.349C8046.86 188.349 8051.36 189.312 8055.52 191.176C8059.68 193.039 8063.39 195.76 8066.42 199.161C8069.46 202.562 8071.73 206.565 8073.11 210.908C8074.48 215.252 8074.93 219.836 8074.4 224.362V304.294C8074.29 312.79 8070.84 320.9 8064.79 326.868C8058.74 332.836 8050.59 336.182 8042.09 336.181Z" fill="#34A076"/>
<path d="M8042.51 162.288C8060.36 162.288 8074.83 147.821 8074.83 129.975C8074.83 112.129 8060.36 97.6625 8042.51 97.6625C8024.67 97.6625 8010.2 112.129 8010.2 129.975C8010.2 147.821 8024.67 162.288 8042.51 162.288Z" fill="#34A076"/>
<path d="M8042.51 523.68C8060.36 523.68 8074.83 509.213 8074.83 491.367C8074.83 473.521 8060.36 459.054 8042.51 459.054C8024.67 459.054 8010.2 473.521 8010.2 491.367C8010.2 509.213 8024.67 523.68 8042.51 523.68Z" fill="#34A076"/>
<path d="M8042.51 429.293C8060.36 429.293 8074.83 414.826 8074.83 396.98C8074.83 379.134 8060.36 364.667 8042.51 364.667C8024.67 364.667 8010.2 379.134 8010.2 396.98C8010.2 414.826 8024.67 429.293 8042.51 429.293Z" fill="#34A076"/>
<path d="M7786.57 523.68C7804.41 523.68 7818.88 509.213 7818.88 491.367C7818.88 473.521 7804.41 459.054 7786.57 459.054C7768.72 459.054 7754.25 473.521 7754.25 491.367C7754.25 509.213 7768.72 523.68 7786.57 523.68Z" fill="#34A076"/>
<path d="M7786.57 257.1C7804.41 257.1 7818.88 242.633 7818.88 224.787C7818.88 206.942 7804.41 192.475 7786.57 192.475C7768.72 192.475 7754.25 206.942 7754.25 224.787C7754.25 242.633 7768.72 257.1 7786.57 257.1Z" fill="#34A076"/>
<path d="M7786.57 162.288C7804.41 162.288 7818.88 147.821 7818.88 129.975C7818.88 112.129 7804.41 97.6625 7786.57 97.6625C7768.72 97.6625 7754.25 112.129 7754.25 129.975C7754.25 147.821 7768.72 162.288 7786.57 162.288Z" fill="#34A076"/>
<path d="M7786.99 429.293C7778.64 429.299 7770.6 426.07 7764.58 420.284C7758.56 414.497 7755.01 406.602 7754.68 398.255V317.474C7754.68 309.017 7758.04 300.906 7764.02 294.926C7770 288.946 7778.11 285.586 7786.56 285.586C7795.02 285.586 7803.13 288.946 7809.11 294.926C7815.09 300.906 7818.45 309.017 7818.45 317.474V398.255C7818.23 406.491 7814.83 414.323 7808.97 420.109C7803.1 425.894 7795.23 429.186 7786.99 429.293Z" fill="#34A076"/>
</svg>
